{
.appVersion = "3343";
.formatVersion = 3;
DisplayStrings = (
"ABCDEFGHIJKLM
NOPQRTUVWXYZ
0123456789",
"ABCDEFGHIJKLM
NOPQRTTUVWXYZ
0123456789",
"2"
);
axes = (
{
name = Fracture;
tag = FRAC;
}
);
date = "2022-11-29 13:27:31 +0000";
familyName = Fractured;
fontMaster = (
{
axesValues = (
0
);
customParameters = (
{
name = typoAscender;
value = 770;
},
{
name = typoDescender;
value = -230;
},
{
name = typoLineGap;
value = 200;
},
{
name = winAscent;
value = 970;
},
{
name = winDescent;
value = 230;
},
{
name = hheaAscender;
value = 970;
},
{
name = hheaDescender;
value = -230;
},
{
name = strikeoutPosition;
value = 318;
},
{
name = strikeoutSize;
value = 50;
},
{
name = "Alignment Zones";
value = (
{
pos = 735;
size = 14;
}
);
}
);
id = m01;
metricValues = (
{
pos = 770;
},
{
over = 14;
pos = 690;
},
{
over = 15;
pos = 530;
},
{
over = -14;
},
{
pos = -230;
},
{
}
);
name = Regular;
stemValues = (
85,
86,
110
);
},
{
axesValues = (
100
);
customParameters = (
{
name = typoAscender;
value = 770;
},
{
name = typoDescender;
value = -230;
},
{
name = typoLineGap;
value = 200;
},
{
name = winAscent;
value = 970;
},
{
name = winDescent;
value = 230;
},
{
name = hheaAscender;
value = 970;
},
{
name = hheaDescender;
value = -230;
},
{
name = strikeoutPosition;
value = 318;
},
{
name = strikeoutSize;
value = 50;
},
{
name = "Alignment Zones";
value = (
{
pos = 735;
size = 14;
}
);
}
);
id = m002;
metricValues = (
{
pos = 770;
},
{
over = 14;
pos = 690;
},
{
over = 15;
pos = 530;
},
{
over = -14;
},
{
pos = -230;
},
{
}
);
name = Fractured;
stemValues = (
85,
86,
110
);
}
);
glyphs = (
{
glyphname = A;
kernLeft = A;
kernRight = A;
lastChange = "2025-10-01 16:42:36 +0000";
layers = (
{
hints = (
{
horizontal = 1;
place = (0,21);
target = up;
type = BottomGhost;
},
{
horizontal = 1;
place = (228,87);
type = Stem;
},
{
horizontal = 1;
place = (690,-20);
target = down;
type = TopGhost;
},
{
place = (23,631);
type = Stem;
},
{
horizontal = 1;
place = (599,91);
type = Stem;
}
);
layerId = m01;
shapes = (
{
closed = 1;
nodes = (
(311,315,l),
(407,599,l),
(498,315,l)
);
},
{
closed = 1;
nodes = (
(276,517,l),
(90,0,l),
(207,0,l),
(276,209,l)
);
},
{
closed = 1;
nodes = (
(552,485,l),
(480,690,l),
(338,690,l),
(244,429,l),
(244,113,l),
(282,228,l),
(527,228,l),
(552,153,l)
);
},
{
closed = 1;
nodes = (
(276,209,l),
(276,517,l)
);
},
{
closed = 1;
nodes = (
(594,363,l),
(492,656,l),
(492,334,l),
(498,315,l),
(492,315,l),
(492,228,l),
(527,228,l),
(594,23,l)
);
},
{
closed = 1;
nodes = (
(553,150,l),
(602,0,l),
(721,0,l),
(553,482,l)
);
}
);
width = 811;
},
{
hints = (
{
horizontal = 1;
place = (0,21);
target = up;
type = BottomGhost;
},
{
horizontal = 1;
place = (228,87);
type = Stem;
},
{
horizontal = 1;
place = (690,-20);
target = down;
type = TopGhost;
},
{
place = (23,631);
type = Stem;
},
{
horizontal = 1;
place = (599,91);
type = Stem;
}
);
layerId = m002;
shapes = (
{
closed = 1;
nodes = (
(343,315,l),
(439,599,l),
(530,315,l)
);
},
{
closed = 1;
nodes = (
(276,517,l),
(90,0,l),
(207,0,l),
(276,209,l)
);
},
{
closed = 1;
nodes = (
(584,485,l),
(512,690,l),
(370,690,l),
(276,429,l),
(276,113,l),
(314,228,l),
(559,228,l),
(584,153,l)
);
},
{
closed = 1;
nodes = (
(276,209,l),
(276,517,l)
);
},
{
closed = 1;
nodes = (
(686,363,l),
(584,656,l),
(584,334,l),
(590,315,l),
(584,315,l),
(584,228,l),
(619,228,l),
(686,23,l)
);
},
{
closed = 1;
nodes = (
(686,150,l),
(735,0,l),
(854,0,l),
(686,482,l)
);
}
);
width = 944;
}
);
note = A;
unicode = (65,97);
},
{
glyphname = B;
lastChange = "2025-10-01 16:42:36 +0000";
layers = (
{
hints = (
{
horizontal = 1;
place = (0,88);
type = Stem;
},
{
horizontal = 1;
place = (314,85);
type = Stem;
},
{
horizontal = 1;
place = (603,87);
type = Stem;
},
{
place = (95,110);
type = Stem;
},
{
place = (489,116);
type = Stem;
},
{
place = (464,116);
type = Stem;
}
);
layerId = m01;
shapes = (
{
closed = 1;
nodes = (
(90,690,l),
(90,0,l),
(90,88,l),
(90,314,l),
(90,399,l),
(90,603,l)
);
},
{
closed = 1;
nodes = (
(482,178,l),
(474,124,o),
(434,93,o),
(383,89,cs),
(370,88,o),
(352,88,o),
(336,88,cs),
(335,88,l),
(335,0,l),
(365,0,o),
(386,0,o),
(417,5,cs),
(439,8,o),
(461,14,o),
(482,23,c)
);
},
{
closed = 1;
nodes = (
(442,678,l),
(430,681,o),
(417,684,o),
(403,686,cs),
(369,690,o),
(347,690,o),
(313,690,cs),
(90,690,l),
(90,0,l),
(325,0,ls),
(360,0,o),
(383,0,o),
(417,5,cs),
(426,6,o),
(434,8,o),
(442,10,c),
(442,110,l),
(426,98,o),
(405,91,o),
(383,89,cs),
(370,88,o),
(352,88,o),
(336,88,cs),
(200,88,l),
(200,314,l),
(330,314,ls),
(346,314,o),
(362,314,o),
(382,311,cs),
(405,308,o),
(426,302,o),
(442,291,c),
(442,442,l),
(429,422,o),
(406,409,o),
(372,403,cs),
(354,400,o),
(337,399,o),
(320,399,cs),
(200,399,l),
(200,603,l),
(313,603,ls),
(329,603,o),
(349,602,o),
(365,600,cs),
(398,596,o),
(426,584,o),
(442,561,c)
);
},
{
closed = 1;
nodes = (
(482,664,l),
(460,674,o),
(433,682,o),
(403,686,cs),
(377,689,o),
(358,690,o),
(335,690,c),
(335,602,l),
(345,602,o),
(356,601,o),
(365,600,cs),
(420,594,o),
(459,565,o),
(459,504,cs),
(459,448,o),
(433,413,o),
(372,403,cs),
(359,401,o),
(347,400,o),
(335,399,c),
(335,314,l),
(349,314,o),
(364,314,o),
(382,311,cs),
(434,305,o),
(474,280,o),
(482,223,c),
(482,363,l),
(476,365,o),
(469,367,o),
(462,369,c),
(469,371,o),
(476,374,o),
(482,377,c)
);
},
{
closed = 1;
nodes = (
(485,199,l),
(485,192,o),
(484,184,o),
(483,178,c),
(483,23,l)
);
},
{
closed = 1;
nodes = (
(417,583,l),
(443,568,o),
(459,542,o),
(459,503,cs),
(459,463,o),
(446,434,o),
(417,417,c),
(417,302,l),
(457,288,o),
(484,257,o),
(484,198,cs),
(484,145,o),
(456,110,o),
(417,95,c),
(417,4,l),
(508,17,o),
(600,77,o),
(600,203,cs),
(600,295,o),
(552,346,o),
(462,368,c),
(533,392,o),
(575,437,o),
(575,515,cs),
(575,607,o),
(518,665,o),
(417,683,c)
);
}
);
width = 690;
},
{
hints = (
{
horizontal = 1;
place = (0,88);
type = Stem;
},
{
horizontal = 1;
place = (314,85);
type = Stem;
},
{
horizontal = 1;
place = (603,87);
type = Stem;
},
{
place = (95,110);
type = Stem;
},
{
place = (489,116);
type = Stem;
},
{
place = (464,116);
type = Stem;
}
);
layerId = m002;
shapes = (
{
closed = 1;
nodes = (
(90,690,l),
(90,0,l),
(90,88,l),
(90,314,l),
(90,399,l),
(90,603,l)
);
},
{
closed = 1;
nodes = (
(589,178,l),
(581,124,o),
(541,93,o),
(490,89,cs),
(477,88,o),
(459,88,o),
(443,88,cs),
(442,88,l),
(442,0,l),
(472,0,o),
(493,0,o),
(524,5,cs),
(546,8,o),
(568,14,o),
(589,23,c)
);
},
{
closed = 1;
nodes = (
(442,678,l),
(430,681,o),
(417,684,o),
(403,686,cs),
(369,690,o),
(347,690,o),
(313,690,cs),
(90,690,l),
(90,0,l),
(325,0,ls),
(360,0,o),
(383,0,o),
(417,5,cs),
(426,6,o),
(434,8,o),
(442,10,c),
(442,110,l),
(426,98,o),
(405,91,o),
(383,89,cs),
(370,88,o),
(352,88,o),
(336,88,cs),
(200,88,l),
(200,314,l),
(330,314,ls),
(346,314,o),
(362,314,o),
(382,311,cs),
(405,308,o),
(426,302,o),
(442,291,c),
(442,442,l),
(429,422,o),
(406,409,o),
(372,403,cs),
(354,400,o),
(337,399,o),
(320,399,cs),
(200,399,l),
(200,603,l),
(313,603,ls),
(329,603,o),
(349,602,o),
(365,600,cs),
(398,596,o),
(426,584,o),
(442,561,c)
);
},
{
closed = 1;
nodes = (
(589,664,l),
(567,674,o),
(540,682,o),
(510,686,cs),
(484,689,o),
(465,690,o),
(442,690,c),
(442,602,l),
(452,602,o),
(463,601,o),
(472,600,cs),
(527,594,o),
(566,565,o),
(566,504,cs),
(566,448,o),
(540,413,o),
(479,403,cs),
(466,401,o),
(454,400,o),
(442,399,c),
(442,314,l),
(456,314,o),
(471,314,o),
(489,311,cs),
(541,305,o),
(581,280,o),
(589,223,c),
(589,363,l),
(583,365,o),
(576,367,o),
(569,369,c),
(576,371,o),
(583,374,o),
(589,377,c)
);
},
{
closed = 1;
nodes = (
(591,199,l),
(591,192,o),
(590,184,o),
(589,178,c),
(589,23,l)
);
},
{
closed = 1;
nodes = (
(589,584,l),
(615,569,o),
(631,543,o),
(631,504,cs),
(631,464,o),
(618,435,o),
(589,418,c),
(589,303,l),
(629,289,o),
(656,258,o),
(656,199,cs),
(656,146,o),
(628,111,o),
(589,96,c),
(589,5,l),
(680,18,o),
(772,78,o),
(772,204,cs),
(772,296,o),
(724,347,o),
(634,369,c),
(705,393,o),
(747,438,o),
(747,516,cs),
(747,608,o),
(690,666,o),
(589,684,c)
);
}
);
width = 862;
}
);
note = B;
unicode = (66,98);
},
{
glyphname = C;
kernLeft = C;
kernRight = C;
lastChange = "2025-10-01 16:42:36 +0000";
layers = (
{
hints = (
{
horizontal = 1;
place = (-14,84);
type = Stem;
},
{
horizontal = 1;
place = (620,84);
type = Stem;
},
{
place = (49,119);
type = Stem;
}
);
layerId = m01;
shapes = (
{
closed = 1;
nodes = (
(259,664,l),
(155,607,o),
(90,492,o),
(90,342,cs),
(90,192,o),
(152,75,o),
(259,20,c),
(259,153,l),
(227,201,o),
(209,267,o),
(209,347,cs),
(209,423,o),
(227,488,o),
(259,535,c)
);
},
{
closed = 1;
nodes = (
(551,127,l),
(520,91,o),
(475,70,o),
(414,70,cs),
(327,70,o),
(260,124,o),
(229,218,c),
(229,38,l),
(278,5,o),
(339,-14,o),
(409,-14,cs),
(463,-14,o),
(511,-5,o),
(551,12,c)
);
},
{
closed = 1;
nodes = (
(551,682,l),
(514,696,o),
(471,704,o),
(421,704,cs),
(347,704,o),
(282,683,o),
(229,645,c),
(229,472,l),
(260,564,o),
(327,620,o),
(419,620,cs),
(477,620,o),
(520,602,o),
(551,570,c)
);
},
{
closed = 1;
nodes = (
(608,234,l),
(596,234,l),
(594,224,ls),
(579,152,o),
(542,99,o),
(478,79,c),
(478,-9,l),
(530,0,o),
(574,19,o),
(608,45,c)
);
},
{
closed = 1;
nodes = (
(608,652,l),
(574,676,o),
(530,693,o),
(478,700,c),
(478,613,l),
(545,594,o),
(584,542,o),
(599,468,cs),
(601,458,l),
(608,458,l)
);
},
{
closed = 1;
nodes = (
(530,4,l),
(635,40,o),
(694,123,o),
(704,224,cs),
(705,234,l),
(596,234,l),
(594,224,ls),
(584,175,o),
(563,134,o),
(530,107,c)
);
},
{
closed = 1;
nodes = (
(530,588,l),
(566,561,o),
(588,520,o),
(599,468,cs),
(601,458,l),
(710,458,l),
(709,468,ls),
(699,573,o),
(640,657,o),
(530,689,c)
);
}
);
width = 800;
},
{
layerId = m002;
shapes = (
{
closed = 1;
nodes = (
(259,664,l),
(155,607,o),
(90,492,o),
(90,342,cs),
(90,192,o),
(152,75,o),
(259,20,c),
(259,153,l),
(227,201,o),
(209,267,o),
(209,347,cs),
(209,423,o),
(227,488,o),
(259,535,c)
);
},
{
closed = 1;
nodes = (
(581,127,l),
(550,91,o),
(505,70,o),
(444,70,cs),
(357,70,o),
(290,124,o),
(259,218,c),
(259,38,l),
(308,5,o),
(369,-14,o),
(439,-14,cs),
(493,-14,o),
(541,-5,o),
(581,12,c)
);
},
{
closed = 1;
nodes = (
(581,682,l),
(544,696,o),
(501,704,o),
(451,704,cs),
(377,704,o),
(312,683,o),
(259,645,c),
(259,472,l),
(290,564,o),
(357,620,o),
(449,620,cs),
(507,620,o),
(550,602,o),
(581,570,c)
);
},
{
closed = 1;
nodes = (
(711,234,l),
(699,234,l),
(697,224,ls),
(682,152,o),
(645,99,o),
(581,79,c),
(581,-9,l),
(633,0,o),
(677,19,o),
(711,45,c)
);
},
{
closed = 1;
nodes = (
(711,652,l),
(677,676,o),
(633,693,o),
(581,700,c),
(581,613,l),
(648,594,o),
(687,542,o),
(702,468,cs),
(704,458,l),
(711,458,l)
);
},
{
closed = 1;
nodes = (
(711,4,l),
(816,40,o),
(875,123,o),
(885,224,cs),
(886,234,l),
(777,234,l),
(775,224,ls),
(765,175,o),
(744,134,o),
(711,107,c)
);
},
{
closed = 1;
nodes = (
(711,588,l),
(747,561,o),
(769,520,o),
(780,468,cs),
(782,458,l),
(891,458,l),
(890,468,ls),
(880,573,o),
(821,657,o),
(711,689,c)
);
}
);
width = 981;
}
);
note = C;
unicode = (67,99);
},
{
glyphname = D;
kernRight = D;
lastChange = "2025-10-01 16:42:36 +0000";
layers = (
{
hints = (
{
horizontal = 1;
place = (0,88);
type = Stem;
},
{
horizontal = 1;
place = (603,87);
type = Stem;
},
{
place = (95,110);
type = Stem;
},
{
place = (566,118);
type = Stem;
}
);
layerId = m01;
shapes = (
{
closed = 1;
nodes = (
(439,680,l),
(426,682,o),
(414,684,o),
(401,686,cs),
(366,690,o),
(350,690,o),
(313,690,cs),
(90,690,l),
(90,0,l),
(309,0,ls),
(346,0,o),
(362,0,o),
(397,4,cs),
(411,6,o),
(425,8,o),
(439,12,c),
(439,110,l),
(420,101,o),
(400,95,o),
(378,92,cs),
(356,88,o),
(333,88,o),
(299,88,cs),
(200,88,l),
(200,603,l),
(303,603,ls),
(336,603,o),
(360,602,o),
(382,598,cs),
(402,595,o),
(421,590,o),
(439,582,c)
);
},
{
closed = 1;
nodes = (
(90,690,l),
(90,0,l),
(90,88,l),
(90,603,l)
);
},
{
closed = 1;
nodes = (
(541,227,l),
(512,149,o),
(454,103,o),
(378,92,cs),
(371,91,o),
(364,90,o),
(356,89,c),
(356,1,l),
(368,1,o),
(381,2,o),
(397,4,cs),
(450,10,o),
(499,29,o),
(541,57,c)
);
},
{
closed = 1;
nodes = (
(541,640,l),
(500,665,o),
(452,680,o),
(401,686,cs),
(383,688,o),
(370,689,o),
(356,690,c),
(356,601,l),
(365,601,o),
(374,600,o),
(382,598,cs),
(457,587,o),
(512,545,o),
(541,474,c)
);
},
{
closed = 1;
nodes = (
(496,543,l),
(538,501,o),
(561,437,o),
(561,353,cs),
(561,265,o),
(538,198,o),
(496,153,c),
(496,32,l),
(605,82,o),
(679,192,o),
(679,353,cs),
(679,518,o),
(606,618,o),
(496,662,c)
);
}
);
width = 769;
},
{
layerId = m002;
shapes = (
{
closed = 1;
nodes = (
(439,680,l),
(426,682,o),
(414,684,o),
(401,686,cs),
(366,690,o),
(350,690,o),
(313,690,cs),
(90,690,l),
(90,0,l),
(309,0,ls),
(346,0,o),
(362,0,o),
(397,4,cs),
(411,6,o),
(425,8,o),
(439,12,c),
(439,110,l),
(420,101,o),
(400,95,o),
(378,92,cs),
(356,88,o),
(333,88,o),
(299,88,cs),
(200,88,l),
(200,603,l),
(303,603,ls),
(336,603,o),
(360,602,o),
(382,598,cs),
(402,595,o),
(421,590,o),
(439,582,c)
);
},
{
closed = 1;
nodes = (
(90,690,l),
(90,0,l),
(90,88,l),
(90,603,l)
);
},
{
closed = 1;
nodes = (
(624,227,l),
(595,149,o),
(537,103,o),
(461,92,cs),
(454,91,o),
(447,90,o),
(439,89,c),
(439,1,l),
(451,1,o),
(464,2,o),
(480,4,cs),
(533,10,o),
(582,29,o),
(624,57,c)
);
},
{
closed = 1;
nodes = (
(624,640,l),
(583,665,o),
(535,680,o),
(484,686,cs),
(466,688,o),
(453,689,o),
(439,690,c),
(439,601,l),
(448,601,o),
(457,600,o),
(465,598,cs),
(540,587,o),
(595,545,o),
(624,474,c)
);
},
{
closed = 1;
nodes = (
(624,543,l),
(666,501,o),
(689,437,o),
(689,353,cs),
(689,265,o),
(666,198,o),
(624,153,c),
(624,32,l),
(733,82,o),
(807,192,o),
(807,353,cs),
(807,518,o),
(734,618,o),
(624,662,c)
);
}
);
width = 897;
}
);
note = D;
unicode = (68,100);
},
{
glyphname = E;
lastChange = "2025-10-01 16:42:36 +0000";
layers = (
{
hints = (
{
horizontal = 1;
place = (0,88);
type = Stem;
},
{
horizontal = 1;
place = (302,87);
type = Stem;
},
{
horizontal = 1;
place = (603,87);
type = Stem;
},
{
place = (95,110);
type = Stem;
}
);
layerId = m01;
shapes = (
{
closed = 1;
nodes = (
(567,88,l),
(200,88,l),
(200,302,l),
(529,302,l),
(529,389,l),
(200,389,l),
(200,603,l),
(557,603,l),
(557,690,l),
(90,690,l),
(90,0,l),
(567,0,l)
);
},
{
closed = 1;
nodes = (
(90,690,l),
(90,0,l),
(90,88,l),
(90,302,l),
(90,389,l),
(90,603,l)
);
},
{
closed = 1;
nodes = (
(395,88,l),
(191,88,l),
(191,302,l),
(357,302,l),
(357,389,l),
(191,389,l),
(191,603,l),
(385,603,l),
(385,690,l),
(138,690,l),
(138,0,l),
(395,0,l)
);
},
{
closed = 1;
nodes = (
(138,690,l),
(138,0,l),
(138,88,l),
(138,302,l),
(138,389,l),
(138,603,l)
);
},
{
closed = 1;
nodes = (
(318,88,l),
(114,88,l),
(114,302,l),
(280,302,l),
(280,389,l),
(114,389,l),
(114,603,l),
(308,603,l),
(308,690,l),
(90,690,l),
(90,0,l),
(318,0,l)
);
},
{
closed = 1;
nodes = (
(90,690,l),
(90,0,l),
(90,88,l),
(90,302,l),
(90,389,l),
(90,603,l)
);
}
);
width = 657;
},
{
layerId = m002;
shapes = (
{
closed = 1;
nodes = (
(730,88,l),
(363,88,l),
(363,302,l),
(692,302,l),
(692,389,l),
(363,389,l),
(363,603,l),
(720,603,l),
(720,690,l),
(253,690,l),
(253,0,l),
(730,0,l)
);
},
{
closed = 1;
nodes = (
(253,690,l),
(253,0,l),
(253,88,l),
(253,302,l),
(253,389,l),
(253,603,l)
);
},
{
closed = 1;
nodes = (
(558,88,l),
(191,88,l),
(191,302,l),
(520,302,l),
(520,389,l),
(191,389,l),
(191,603,l),
(548,603,l),
(548,690,l),
(138,690,l),
(138,0,l),
(558,0,l)
);
},
{
closed = 1;
nodes = (
(138,690,l),
(138,0,l),
(138,88,l),
(138,302,l),
(138,389,l),
(138,603,l)
);
},
{
closed = 1;
nodes = (
(481,88,l),
(114,88,l),
(114,302,l),
(443,302,l),
(443,389,l),
(114,389,l),
(114,603,l),
(471,603,l),
(471,690,l),
(90,690,l),
(90,0,l),
(481,0,l)
);
},
{
closed = 1;
nodes = (
(90,690,l),
(90,0,l),
(90,88,l),
(90,302,l),
(90,389,l),
(90,603,l)
);
}
);
width = 820;
}
);
note = E;
unicode = (69,101);
},
{
glyphname = F;
kernRight = F;
lastChange = "2025-10-01 16:42:36 +0000";
layers = (
{
hints = (
{
horizontal = 1;
place = (0,21);
target = up;
type = BottomGhost;
},
{
horizontal = 1;
place = (302,87);
type = Stem;
},
{
horizontal = 1;
place = (603,87);
type = Stem;
},
{
place = (95,110);
type = Stem;
}
);
layerId = m01;
shapes = (
{
closed = 1;
nodes = (
(200,603,l),
(557,603,l),
(557,690,l),
(90,690,l),
(90,0,l),
(200,0,l),
(200,302,l),
(519,302,l),
(519,389,l),
(200,389,l)
);
},
{
closed = 1;
nodes = (
(266,690,l),
(138,690,l),
(138,0,l),
(196,0,l),
(196,302,l),
(266,302,l),
(266,389,l),
(196,389,l),
(196,603,l),
(266,603,l)
);
},
{
closed = 1;
nodes = (
(172,690,l),
(91,690,l),
(91,0,l),
(111,0,l),
(111,302,l),
(172,302,l),
(172,389,l),
(111,389,l),
(111,603,l),
(172,603,l)
);
}
);
width = 647;
},
{
layerId = m002;
shapes = (
{
closed = 1;
nodes = (
(371,603,l),
(728,603,l),
(728,690,l),
(261,690,l),
(261,0,l),
(371,0,l),
(371,302,l),
(690,302,l),
(690,389,l),
(371,389,l)
);
},
{
closed = 1;
nodes = (
(265,690,l),
(137,690,l),
(137,0,l),
(195,0,l),
(195,302,l),
(265,302,l),
(265,389,l),
(195,389,l),
(195,603,l),
(265,603,l)
);
},
{
closed = 1;
nodes = (
(171,690,l),
(90,690,l),
(90,0,l),
(110,0,l),
(110,302,l),
(171,302,l),
(171,389,l),
(110,389,l),
(110,603,l),
(171,603,l)
);
}
);
width = 818;
}
);
note = F;
unicode = (70,102);
},
{
glyphname = G;
kernLeft = C;
kernRight = G;
lastChange = "2025-10-01 16:42:36 +0000";
layers = (
{
hints = (
{
horizontal = 1;
place = (-14,84);
type = Stem;
},
{
horizontal = 1;
place = (254,88);
type = Stem;
},
{
horizontal = 1;
place = (620,84);
type = Stem;
},
{
place = (49,119);
type = Stem;
},
{
place = (569,94);
type = Stem;
},
{
place = (560,110);
type = Stem;
},
{
horizontal = 1;
place = (0,21);
target = up;
type = BottomGhost;
}
);
layerId = m01;
shapes = (
{
closed = 1;
nodes = (
(255,661,l),
(153,603,o),
(90,489,o),
(90,342,cs),
(90,192,o),
(149,75,o),
(255,20,c),
(255,161,l),
(225,208,o),
(209,271,o),
(209,347,cs),
(209,419,o),
(225,481,o),
(255,528,c)
);
},
{
closed = 1;
nodes = (
(525,106,l),
(495,83,o),
(458,70,o),
(415,70,cs),
(318,70,o),
(246,136,o),
(220,247,c),
(220,42,l),
(269,6,o),
(330,-14,o),
(403,-14,cs),
(451,-14,o),
(492,-5,o),
(525,11,c)
);
},
{
closed = 1;
nodes = (
(525,691,l),
(495,700,o),
(460,704,o),
(422,704,cs),
(344,704,o),
(274,680,o),
(220,638,c),
(220,443,l),
(246,552,o),
(319,620,o),
(420,620,cs),
(463,620,o),
(498,610,o),
(525,592,c)
);
},
{
closed = 1;
nodes = (
(525,342,l),
(443,342,l),
(443,254,l),
(525,254,l)
);
},
{
closed = 1;
nodes = (
(613,651,l),
(579,675,o),
(537,691,o),
(487,699,c),
(487,610,l),
(551,590,o),
(587,539,o),
(601,468,cs),
(603,458,l),
(613,458,l)
);
},
{
closed = 1;
nodes = (
(508,254,l),
(596,254,l),
(593,181,o),
(559,125,o),
(508,94,c),
(508,4,l),
(535,15,o),
(558,30,o),
(576,50,c),
(592,69,o),
(600,86,o),
(607,117,c),
(611,0,l),
(703,0,l),
(703,342,l),
(508,342,l)
);
},
{
closed = 1;
nodes = (
(508,601,l),
(558,577,o),
(587,530,o),
(599,468,cs),
(601,458,l),
(711,458,l),
(710,468,ls),
(699,580,o),
(632,668,o),
(508,695,c)
);
},
{
closed = 1;
nodes = (
(613,342,l),
(487,342,l),
(487,254,l),
(598,254,l),
(594,171,o),
(551,109,o),
(487,83,c),
(487,-4,l),
(524,7,o),
(559,25,o),
(578,50,cs),
(593,69,o),
(603,91,o),
(609,117,c),
(613,24,l)
);
}
);
width = 801;
},
{
hints = (
{
horizontal = 1;
place = (-14,84);
type = Stem;
},
{
horizontal = 1;
place = (254,88);
type = Stem;
},
{
horizontal = 1;
place = (620,84);
type = Stem;
},
{
place = (49,119);
type = Stem;
},
{
place = (569,94);
type = Stem;
},
{
place = (560,110);
type = Stem;
},
{
horizontal = 1;
place = (0,21);
target = up;
type = BottomGhost;
}
);
layerId = m002;
shapes = (
{
closed = 1;
nodes = (
(255,661,l),
(153,603,o),
(90,489,o),
(90,342,cs),
(90,192,o),
(149,75,o),
(255,20,c),
(255,161,l),
(225,208,o),
(209,271,o),
(209,347,cs),
(209,419,o),
(225,481,o),
(255,528,c)
);
},
{
closed = 1;
nodes = (
(559,106,l),
(529,83,o),
(492,70,o),
(449,70,cs),
(352,70,o),
(280,136,o),
(254,247,c),
(254,42,l),
(303,6,o),
(364,-14,o),
(437,-14,cs),
(485,-14,o),
(526,-5,o),
(559,11,c)
);
},
{
closed = 1;
nodes = (
(559,691,l),
(529,700,o),
(494,704,o),
(456,704,cs),
(378,704,o),
(308,680,o),
(254,638,c),
(254,443,l),
(280,552,o),
(353,620,o),
(454,620,cs),
(497,620,o),
(532,610,o),
(559,592,c)
);
},
{
closed = 1;
nodes = (
(559,342,l),
(477,342,l),
(477,254,l),
(559,254,l)
);
},
{
closed = 1;
nodes = (
(685,651,l),
(651,675,o),
(609,691,o),
(559,699,c),
(559,610,l),
(623,590,o),
(659,539,o),
(673,468,cs),
(675,458,l),
(685,458,l)
);
},
{
closed = 1;
nodes = (
(685,254,l),
(773,254,l),
(770,181,o),
(736,125,o),
(685,94,c),
(685,4,l),
(712,15,o),
(735,30,o),
(753,50,c),
(769,69,o),
(777,86,o),
(784,117,c),
(788,0,l),
(880,0,l),
(880,342,l),
(685,342,l)
);
},
{
closed = 1;
nodes = (
(685,601,l),
(735,577,o),
(764,530,o),
(776,468,cs),
(778,458,l),
(888,458,l),
(887,468,ls),
(876,580,o),
(809,668,o),
(685,695,c)
);
},
{
closed = 1;
nodes = (
(685,342,l),
(559,342,l),
(559,254,l),
(670,254,l),
(666,171,o),
(623,109,o),
(559,83,c),
(559,-4,l),
(596,7,o),
(631,25,o),
(650,50,cs),
(665,69,o),
(675,91,o),
(681,117,c),
(685,24,l)
);
}
);
width = 978;
}
);
note = G;
unicode = (71,103);
},
{
glyphname = H;
lastChange = "2025-10-01 16:42:36 +0000";
layers = (
{
hints = (
{
horizontal = 1;
place = (0,21);
target = up;
type = BottomGhost;
},
{
horizontal = 1;
place = (294,89);
type = Stem;
},
{
horizontal = 1;
place = (690,-20);
target = down;
type = TopGhost;
},
{
place = (95,110);
type = Stem;
},
{
place = (559,109);
type = Stem;
}
);
layerId = m01;
shapes = (
{
closed = 1;
nodes = (
(663,690,l),
(554,690,l),
(554,383,l),
(200,383,l),
(200,690,l),
(90,690,l),
(90,0,l),
(200,0,l),
(200,294,l),
(554,294,l),
(554,0,l),
(663,0,l)
);
},
{
closed = 1;
nodes = (
(297,383,l),
(195,383,l),
(195,690,l),
(138,690,l),
(138,0,l),
(195,0,l),
(195,294,l),
(297,294,l)
);
},
{
closed = 1;
nodes = (
(314,383,l),
(124,383,l),
(124,690,l),
(101,690,l),
(101,0,l),
(124,0,l),
(124,294,l),
(314,294,l)
);
}
);
width = 753;
},
{
hints = (
{
horizontal = 1;
place = (0,21);
target = up;
type = BottomGhost;
},
{
horizontal = 1;
place = (294,89);
type = Stem;
},
{
horizontal = 1;
place = (690,-20);
target = down;
type = TopGhost;
},
{
place = (95,110);
type = Stem;
},
{
place = (559,109);
type = Stem;
}
);
layerId = m002;
shapes = (
{
closed = 1;
nodes = (
(837,690,l),
(728,690,l),
(728,383,l),
(374,383,l),
(374,690,l),
(264,690,l),
(264,0,l),
(374,0,l),
(374,294,l),
(728,294,l),
(728,0,l),
(837,0,l)
);
},
{
closed = 1;
nodes = (
(308,383,l),
(206,383,l),
(206,690,l),
(149,690,l),
(149,0,l),
(206,0,l),
(206,294,l),
(308,294,l)
);
},
{
closed = 1;
nodes = (
(303,383,l),
(113,383,l),
(113,690,l),
(90,690,l),
(90,0,l),
(113,0,l),
(113,294,l),
(303,294,l)
);
}
);
width = 927;
}
);
note = H;
unicode = (72,104);
},
{
glyphname = I;
lastChange = "2025-10-01 16:42:36 +0000";
layers = (
{
hints = (
{
horizontal = 1;
place = (0,21);
target = up;
type = BottomGhost;
},
{
horizontal = 1;
place = (690,-20);
target = down;
type = TopGhost;
},
{
place = (95,110);
type = Stem;
}
);
layerId = m01;
shapes = (
{
closed = 1;
nodes = (
(200,0,l),
(200,690,l),
(90,690,l),
(90,0,l)
);
},
{
closed = 1;
nodes = (
(164,0,l),
(164,690,l),
(108,690,l),
(108,0,l)
);
},
{
closed = 1;
nodes = (
(164,0,l),
(164,690,l),
(141,690,l),
(141,0,l)
);
}
);
width = 290;
},
{
hints = (
{
horizontal = 1;
place = (0,21);
target = up;
type = BottomGhost;
},
{
horizontal = 1;
place = (690,-20);
target = down;
type = TopGhost;
},
{
place = (95,110);
type = Stem;
}
);
layerId = m002;
shapes = (
{
closed = 1;
nodes = (
(336,0,l),
(336,690,l),
(226,690,l),
(226,0,l)
);
},
{
closed = 1;
nodes = (
(191,0,l),
(191,690,l),
(135,690,l),
(135,0,l)
);
},
{
closed = 1;
nodes = (
(113,0,l),
(113,690,l),
(90,690,l),
(90,0,l)
);
}
);
width = 426;
}
);
note = I;
unicode = (73,105);
},
{
glyphname = J;
kernLeft = J;
kernRight = IJ;
lastChange = "2025-10-01 16:42:36 +0000";
layers = (
{
hints = (
{
horizontal = 1;
place = (-14,84);
type = Stem;
},
{
horizontal = 1;
place = (690,-20);
target = down;
type = TopGhost;
},
{
place = (53.5,110.5);
type = Stem;
},
{
place = (403,110);
type = Stem;
}
);
layerId = m01;
shapes = (
{
closed = 1;
nodes = (
(273,78,l),
(230,95,o),
(206,135,o),
(202,204,cs),
(200,242,l),
(90,242,l),
(91,204,ls),
(95,84,o),
(156,3,o),
(273,-11,c)
);
},
{
closed = 1;
nodes = (
(437,175,l),
(428,110,o),
(392,70,o),
(324,70,cs),
(282,70,o),
(251,83,o),
(230,111,c),
(230,-2,l),
(255,-10,o),
(283,-14,o),
(314,-14,cs),
(363,-14,o),
(404,-6,o),
(437,9,c)
);
},
{
closed = 1;
nodes = (
(381,-8,l),
(489,13,o),
(541,86,o),
(547,184,cs),
(550,223,o),
(550,245,o),
(550,273,cs),
(550,690,l),
(440,690,l),
(440,268,ls),
(440,236,o),
(440,212,o),
(439,191,cs),
(435,139,o),
(416,101,o),
(381,83,c)
);
}
);
width = 640;
},
{
layerId = m002;
shapes = (
{
closed = 1;
nodes = (
(273,78,l),
(230,95,o),
(206,135,o),
(202,204,cs),
(200,242,l),
(90,242,l),
(91,204,ls),
(95,84,o),
(156,3,o),
(273,-11,c)
);
},
{
closed = 1;
nodes = (
(480,175,l),
(471,110,o),
(435,70,o),
(367,70,cs),
(325,70,o),
(294,83,o),
(273,111,c),
(273,-2,l),
(298,-10,o),
(326,-14,o),
(357,-14,cs),
(406,-14,o),
(447,-6,o),
(480,9,c)
);
},
{
closed = 1;
nodes = (
(480,-8,l),
(588,13,o),
(640,86,o),
(646,184,cs),
(649,223,o),
(649,245,o),
(649,273,cs),
(649,690,l),
(539,690,l),
(539,268,ls),
(539,236,o),
(539,212,o),
(538,191,cs),
(534,139,o),
(515,101,o),
(480,83,c)
);
}
);
width = 739;
}
);
note = J;
unicode = (74,106);
},
{
glyphname = K;
kernRight = K;
lastChange = "2025-10-01 16:42:36 +0000";
layers = (
{
hints = (
{
horizontal = 1;
place = (0,21);
target = up;
type = BottomGhost;
},
{
horizontal = 1;
place = (690,-20);
target = down;
type = TopGhost;
},
{
place = (95,110);
type = Stem;
}
);
layerId = m01;
shapes = (
{
closed = 1;
nodes = (
(343,495,l),
(200,339,l),
(200,690,l),
(90,690,l),
(90,0,l),
(200,0,l),
(200,222,l),
(261,288,l),
(343,184,l),
(343,354,l),
(341,356,l),
(343,358,l)
);
},
{
closed = 1;
nodes = (
(443,605,l),
(249,392,l),
(249,275,l),
(261,288,l),
(443,57,l),
(443,232,l),
(341,356,l),
(443,466,l)
);
},
{
closed = 1;
nodes = (
(393,120,l),
(488,0,l),
(635,0,l),
(393,293,l)
);
},
{
closed = 1;
nodes = (
(393,412,l),
(651,690,l),
(521,690,l),
(393,550,l)
);
}
);
width = 741;
},
{
layerId = m002;
shapes = (
{
closed = 1;
nodes = (
(343,495,l),
(200,339,l),
(200,690,l),
(90,690,l),
(90,0,l),
(200,0,l),
(200,222,l),
(261,288,l),
(343,184,l),
(343,354,l),
(341,356,l),
(343,358,l)
);
},
{
closed = 1;
nodes = (
(535,605,l),
(341,392,l),
(341,275,l),
(353,288,l),
(535,57,l),
(535,232,l),
(433,356,l),
(535,466,l)
);
},
{
closed = 1;
nodes = (
(535,120,l),
(630,0,l),
(777,0,l),
(535,293,l)
);
},
{
closed = 1;
nodes = (
(535,412,l),
(793,690,l),
(663,690,l),
(535,550,l)
);
}
);
width = 883;
}
);
note = K;
unicode = (75,107);
},
{
glyphname = L;
kernRight = L;
lastChange = "2025-10-01 16:42:36 +0000";
layers = (
{
hints = (
{
horizontal = 1;
place = (0,91);
type = Stem;
},
{
horizontal = 1;
place = (690,-20);
target = down;
type = TopGhost;
},
{
place = (95,110);
type = Stem;
}
);
layerId = m01;
shapes = (
{
closed = 1;
nodes = (
(567,91,l),
(200,91,l),
(200,690,l),
(90,690,l),
(90,0,l),
(567,0,l)
);
},
{
closed = 1;
nodes = (
(527,91,l),
(171,91,l),
(171,690,l),
(102,690,l),
(102,0,l),
(527,0,l)
);
},
{
closed = 1;
nodes = (
(456,91,l),
(139,91,l),
(139,690,l),
(120,690,l),
(120,0,l),
(456,0,l)
);
}
);
width = 657;
},
{
hints = (
{
horizontal = 1;
place = (0,91);
type = Stem;
},
{
horizontal = 1;
place = (690,-20);
target = down;
type = TopGhost;
},
{
place = (95,110);
type = Stem;
}
);
layerId = m002;
shapes = (
{
closed = 1;
nodes = (
(723,91,l),
(356,91,l),
(356,690,l),
(246,690,l),
(246,0,l),
(723,0,l)
);
},
{
closed = 1;
nodes = (
(561,91,l),
(205,91,l),
(205,690,l),
(136,690,l),
(136,0,l),
(561,0,l)
);
},
{
closed = 1;
nodes = (
(426,91,l),
(109,91,l),
(109,690,l),
(90,690,l),
(90,0,l),
(426,0,l)
);
}
);
width = 813;
}
);
note = L;
unicode = (76,108);
},
{
glyphname = M;
lastChange = "2025-10-01 16:42:36 +0000";
layers = (
{
hints = (
{
horizontal = 1;
place = (0,21);
target = up;
type = BottomGhost;
},
{
horizontal = 1;
place = (690,-20);
target = down;
type = TopGhost;
},
{
place = (95,110);
type = Stem;
},
{
place = (699,109);
type = Stem;
},
{
horizontal = 1;
place = (0,98);
type = Stem;
},
{
horizontal = 1;
place = (585,105);
type = Stem;
}
);
layerId = m01;
shapes = (
{
closed = 1;
nodes = (
(382,317,l),
(267,690,l),
(90,690,l),
(90,0,l),
(200,0,l),
(200,339,ls),
(200,418,o),
(200,511,o),
(198,585,c),
(217,512,o),
(246,418,o),
(271,341,cs),
(382,5,l)
);
},
{
closed = 1;
nodes = (
(579,520,l),
(449,98,l),
(341,450,l),
(341,129,l),
(383,0,l),
(510,0,l),
(579,210,l)
);
},
{
closed = 1;
nodes = (
(533,70,l),
(621,340,ls),
(647,418,o),
(676,513,o),
(696,586,c),
(694,513,o),
(694,418,o),
(694,339,cs),
(694,0,l),
(803,0,l),
(803,690,l),
(631,690,l),
(533,370,l)
);
}
);
width = 880;
},
{
layerId = m002;
shapes = (
{
closed = 1;
nodes = (
(382,317,l),
(267,690,l),
(90,690,l),
(90,0,l),
(200,0,l),
(200,339,ls),
(200,418,o),
(200,511,o),
(198,585,c),
(217,512,o),
(246,418,o),
(271,341,cs),
(382,5,l)
);
},
{
closed = 1;
nodes = (
(620,520,l),
(490,98,l),
(382,450,l),
(382,129,l),
(424,0,l),
(551,0,l),
(620,210,l)
);
},
{
closed = 1;
nodes = (
(619,70,l),
(707,340,ls),
(733,418,o),
(762,513,o),
(782,586,c),
(780,513,o),
(780,418,o),
(780,339,cs),
(780,0,l),
(889,0,l),
(889,690,l),
(717,690,l),
(619,370,l)
);
}
);
width = 979;
}
);
note = M;
unicode = (77,109);
},
{
glyphname = N;
lastChange = "2025-10-01 16:42:36 +0000";
layers = (
{
hints = (
{
horizontal = 1;
place = (0,21);
target = up;
type = BottomGhost;
},
{
horizontal = 1;
place = (690,-20);
target = down;
type = TopGhost;
},
{
place = (95,110);
type = Stem;
},
{
place = (556,108.5);
type = Stem;
},
{
horizontal = 1;
place = (0,117);
type = Stem;
},
{
horizontal = 1;
place = (569,121);
type = Stem;
}
);
layerId = m01;
shapes = (
{
closed = 1;
nodes = (
(351,493,l),
(245,690,l),
(90,690,l),
(90,0,l),
(200,0,l),
(200,330,ls),
(200,401,o),
(199,490,o),
(196,569,c),
(351,280,l)
);
},
{
closed = 1;
nodes = (
(486,242,l),
(317,556,l),
(317,343,l),
(486,29,l)
);
},
{
closed = 1;
nodes = (
(445,105,l),
(502,0,l),
(660,0,l),
(659,690,l),
(551,690,l),
(551,358,ls),
(551,287,o),
(552,195,o),
(554,117,c),
(445,318,l)
);
}
);
width = 750;
},
{
layerId = m002;
shapes = (
{
closed = 1;
nodes = (
(351,493,l),
(245,690,l),
(90,690,l),
(90,0,l),
(200,0,l),
(200,330,ls),
(200,401,o),
(199,490,o),
(196,569,c),
(351,280,l)
);
},
{
closed = 1;
nodes = (
(520,242,l),
(351,556,l),
(351,343,l),
(520,29,l)
);
},
{
closed = 1;
nodes = (
(519,105,l),
(576,0,l),
(734,0,l),
(733,690,l),
(625,690,l),
(625,358,ls),
(625,287,o),
(626,195,o),
(628,117,c),
(519,318,l)
);
}
);
width = 824;
}
);
note = N;
unicode = (78,110);
},
{
glyphname = O;
kernLeft = C;
kernRight = D;
lastChange = "2025-10-01 16:42:36 +0000";
layers = (
{
hints = (
{
horizontal = 1;
place = (-14,84);
type = Stem;
},
{
horizontal = 1;
place = (620,84);
type = Stem;
},
{
place = (49,118);
type = Stem;
},
{
place = (596,118);
type = Stem;
}
);
layerId = m01;
shapes = (
{
closed = 1;
nodes = (
(294,682,l),
(163,635,o),
(90,511,o),
(90,345,cs),
(90,179,o),
(163,55,o),
(294,8,c),
(294,113,l),
(239,158,o),
(208,239,o),
(208,345,cs),
(208,452,o),
(239,532,o),
(294,577,c)
);
},
{
closed = 1;
nodes = (
(548,110,l),
(514,84,o),
(472,70,o),
(423,70,cs),
(339,70,o),
(277,110,o),
(242,181,c),
(242,32,l),
(291,2,o),
(352,-14,o),
(423,-14,cs),
(469,-14,o),
(510,-7,o),
(548,6,c)
);
},
{
closed = 1;
nodes = (
(548,684,l),
(510,697,o),
(469,704,o),
(423,704,cs),
(352,704,o),
(291,688,o),
(242,658,c),
(242,510,l),
(277,581,o),
(339,620,o),
(423,620,cs),
(472,620,o),
(514,606,o),
(548,580,c)
);
},
{
closed = 1;
nodes = (
(639,633,l),
(600,665,o),
(553,687,o),
(498,697,c),
(498,608,l),
(586,575,o),
(637,482,o),
(637,345,cs),
(637,209,o),
(586,115,o),
(498,82,c),
(498,-7,l),
(553,3,o),
(600,25,o),
(639,57,c)
);
},
{
closed = 1;
nodes = (
(597,522,l),
(623,477,o),
(637,417,o),
(637,345,cs),
(637,274,o),
(623,214,o),
(597,169,c),
(597,28,l),
(699,86,o),
(755,200,o),
(755,345,cs),
(755,491,o),
(699,604,o),
(597,662,c)
);
}
);
width = 845;
},
{
hints = (
{
horizontal = 1;
place = (-14,84);
type = Stem;
},
{
horizontal = 1;
place = (620,84);
type = Stem;
},
{
place = (49,118);
type = Stem;
},
{
place = (596,118);
type = Stem;
}
);
layerId = m002;
shapes = (
{
closed = 1;
nodes = (
(294,682,l),
(163,635,o),
(90,511,o),
(90,345,cs),
(90,179,o),
(163,55,o),
(294,8,c),
(294,113,l),
(239,158,o),
(208,239,o),
(208,345,cs),
(208,452,o),
(239,532,o),
(294,577,c)
);
},
{
closed = 1;
nodes = (
(599,110,l),
(565,84,o),
(523,70,o),
(474,70,cs),
(390,70,o),
(328,110,o),
(293,181,c),
(293,32,l),
(342,2,o),
(403,-14,o),
(474,-14,cs),
(520,-14,o),
(561,-7,o),
(599,6,c)
);
},
{
closed = 1;
nodes = (
(599,684,l),
(561,697,o),
(520,704,o),
(474,704,cs),
(403,704,o),
(342,688,o),
(293,658,c),
(293,510,l),
(328,581,o),
(390,620,o),
(474,620,cs),
(523,620,o),
(565,606,o),
(599,580,c)
);
},
{
closed = 1;
nodes = (
(740,633,l),
(701,665,o),
(654,687,o),
(599,697,c),
(599,608,l),
(687,575,o),
(738,482,o),
(738,345,cs),
(738,209,o),
(687,115,o),
(599,82,c),
(599,-7,l),
(654,3,o),
(701,25,o),
(740,57,c)
);
},
{
closed = 1;
nodes = (
(739,522,l),
(765,477,o),
(779,417,o),
(779,345,cs),
(779,274,o),
(765,214,o),
(739,169,c),
(739,28,l),
(841,86,o),
(897,200,o),
(897,345,cs),
(897,491,o),
(841,604,o),
(739,662,c)
);
}
);
width = 987;
}
);
note = O;
unicode = (79,111);
},
{
glyphname = P;
kernRight = P;
lastChange = "2025-10-01 16:42:36 +0000";
layers = (
{
hints = (
{
horizontal = 1;
place = (0,21);
target = up;
type = BottomGhost;
},
{
horizontal = 1;
place = (272,89);
type = Stem;
},
{
horizontal = 1;
place = (601,89);
type = Stem;
},
{
place = (95,110);
type = Stem;
},
{
place = (481,116);
type = Stem;
}
);
layerId = m01;
shapes = (
{
closed = 1;
nodes = (
(400,687,l),
(373,690,o),
(349,690,o),
(316,690,cs),
(90,690,l),
(90,0,l),
(200,0,l),
(200,272,l),
(316,272,ls),
(349,272,o),
(373,272,o),
(400,275,c),
(400,368,l),
(396,367,o),
(393,366,o),
(389,365,cs),
(371,362,o),
(347,361,o),
(319,361,cs),
(200,361,l),
(200,601,l),
(319,601,ls),
(347,601,o),
(371,600,o),
(389,597,cs),
(393,596,o),
(396,595,o),
(400,594,c)
);
},
{
closed = 1;
nodes = (
(458,413,l),
(442,385,o),
(416,370,o),
(386,365,cs),
(368,362,o),
(344,361,o),
(316,361,cs),
(294,361,l),
(294,272,l),
(313,272,ls),
(350,272,o),
(375,272,o),
(407,276,cs),
(425,278,o),
(442,282,o),
(458,288,c)
);
},
{
closed = 1;
nodes = (
(458,674,l),
(442,680,o),
(425,684,o),
(407,686,cs),
(375,690,o),
(350,690,o),
(313,690,cs),
(294,690,l),
(294,601,l),
(316,601,ls),
(344,601,o),
(368,600,o),
(386,597,cs),
(416,592,o),
(442,577,o),
(458,549,c)
);
},
{
closed = 1;
nodes = (
(394,596,l),
(439,585,o),
(474,550,o),
(474,481,cs),
(474,412,o),
(439,377,o),
(394,366,c),
(394,274,l),
(399,275,o),
(403,275,o),
(408,276,cs),
(508,289,o),
(590,359,o),
(590,481,cs),
(590,603,o),
(516,672,o),
(408,686,cs),
(403,687,o),
(399,687,o),
(394,688,c)
);
}
);
width = 680;
},
{
hints = (
{
horizontal = 1;
place = (0,21);
target = up;
type = BottomGhost;
},
{
horizontal = 1;
place = (272,89);
type = Stem;
},
{
horizontal = 1;
place = (601,89);
type = Stem;
},
{
place = (95,110);
type = Stem;
},
{
place = (481,116);
type = Stem;
}
);
layerId = m002;
shapes = (
{
closed = 1;
nodes = (
(400,687,l),
(373,690,o),
(349,690,o),
(316,690,cs),
(90,690,l),
(90,0,l),
(200,0,l),
(200,272,l),
(316,272,ls),
(349,272,o),
(373,272,o),
(400,275,c),
(400,368,l),
(396,367,o),
(393,366,o),
(389,365,cs),
(371,362,o),
(347,361,o),
(319,361,cs),
(200,361,l),
(200,601,l),
(319,601,ls),
(347,601,o),
(371,600,o),
(389,597,cs),
(393,596,o),
(396,595,o),
(400,594,c)
);
},
{
closed = 1;
nodes = (
(564,413,l),
(548,385,o),
(522,370,o),
(492,365,cs),
(474,362,o),
(450,361,o),
(422,361,cs),
(400,361,l),
(400,272,l),
(419,272,ls),
(456,272,o),
(481,272,o),
(513,276,cs),
(531,278,o),
(548,282,o),
(564,288,c)
);
},
{
closed = 1;
nodes = (
(564,674,l),
(548,680,o),
(531,684,o),
(513,686,cs),
(481,690,o),
(456,690,o),
(419,690,cs),
(400,690,l),
(400,601,l),
(422,601,ls),
(450,601,o),
(474,600,o),
(492,597,cs),
(522,592,o),
(548,577,o),
(564,549,c)
);
},
{
closed = 1;
nodes = (
(564,596,l),
(609,585,o),
(644,550,o),
(644,481,cs),
(644,412,o),
(609,377,o),
(564,366,c),
(564,274,l),
(569,275,o),
(573,275,o),
(578,276,cs),
(678,289,o),
(760,359,o),
(760,481,cs),
(760,603,o),
(686,672,o),
(578,686,cs),
(573,687,o),
(569,687,o),
(564,688,c)
);
}
);
width = 850;
}
);
note = P;
unicode = (80,112);
},
{
glyphname = Q;
kernLeft = C;
lastChange = "2025-10-01 16:42:36 +0000";
layers = (
{
hints = (
{
horizontal = 1;
place = (-14,84);
type = Stem;
},
{
horizontal = 1;
place = (620,84);
type = Stem;
},
{
place = (49,118);
type = Stem;
},
{
place = (596,118);
type = Stem;
},
{
horizontal = 1;
place = (2,68);
type = Stem;
}
);
layerId = m01;
shapes = (
{
closed = 1;
nodes = (
(631,262,l),
(613,165,o),
(562,99,o),
(484,78,c),
(484,-9,l),
(488,-9,o),
(492,-8,o),
(495,-7,cs),
(523,-1,o),
(540,2,o),
(568,2,cs),
(589,2,o),
(607,-1,o),
(631,-10,c)
);
},
{
closed = 1;
nodes = (
(631,640,l),
(591,671,o),
(542,691,o),
(484,700,c),
(484,612,l),
(562,591,o),
(613,526,o),
(631,429,c)
);
},
{
closed = 1;
nodes = (
(597,524,l),
(624,479,o),
(638,418,o),
(638,345,cs),
(638,273,o),
(624,212,o),
(597,166,c),
(597,0,l),
(624,-5,o),
(654,-18,o),
(704,-51,c),
(763,22,l),
(721,57,o),
(682,79,o),
(637,87,c),
(715,144,o),
(756,238,o),
(756,345,cs),
(756,491,o),
(700,605,o),
(597,663,c)
);
},
{
closed = 1;
nodes = (
(239,34,l),
(289,3,o),
(351,-14,o),
(423,-14,cs),
(449,-14,o),
(472,-12,o),
(494,-7,cs),
(503,-5,o),
(510,-4,o),
(517,-2,c),
(517,91,l),
(490,77,o),
(458,70,o),
(423,70,cs),
(338,70,o),
(274,112,o),
(239,186,c)
);
},
{
closed = 1;
nodes = (
(239,505,l),
(274,579,o),
(338,620,o),
(423,620,cs),
(458,620,o),
(490,613,o),
(517,599,c),
(517,693,l),
(488,700,o),
(457,704,o),
(423,704,cs),
(351,704,o),
(289,687,o),
(239,656,c)
);
},
{
closed = 1;
nodes = (
(274,674,l),
(156,622,o),
(90,501,o),
(90,345,cs),
(90,190,o),
(156,69,o),
(274,16,c),
(274,132,l),
(232,180,o),
(208,253,o),
(208,345,cs),
(208,437,o),
(232,510,o),
(274,558,c)
);
}
);
width = 853;
},
{
hints = (
{
horizontal = 1;
place = (-14,84);
type = Stem;
},
{
horizontal = 1;
place = (620,84);
type = Stem;
},
{
place = (49,118);
type = Stem;
},
{
place = (596,118);
type = Stem;
},
{
horizontal = 1;
place = (2,68);
type = Stem;
}
);
layerId = m002;
shapes = (
{
closed = 1;
nodes = (
(699,262,l),
(681,165,o),
(630,99,o),
(552,78,c),
(552,-9,l),
(556,-9,o),
(560,-8,o),
(563,-7,cs),
(591,-1,o),
(608,2,o),
(636,2,cs),
(657,2,o),
(675,-1,o),
(699,-10,c)
);
},
{
closed = 1;
nodes = (
(699,640,l),
(659,671,o),
(610,691,o),
(552,700,c),
(552,612,l),
(630,591,o),
(681,526,o),
(699,429,c)
);
},
{
closed = 1;
nodes = (
(699,524,l),
(726,479,o),
(740,418,o),
(740,345,cs),
(740,273,o),
(726,212,o),
(699,166,c),
(699,0,l),
(726,-5,o),
(756,-18,o),
(806,-51,c),
(865,22,l),
(823,57,o),
(784,79,o),
(739,87,c),
(817,144,o),
(858,238,o),
(858,345,cs),
(858,491,o),
(802,605,o),
(699,663,c)
);
},
{
closed = 1;
nodes = (
(274,34,l),
(324,3,o),
(386,-14,o),
(458,-14,cs),
(484,-14,o),
(507,-12,o),
(529,-7,cs),
(538,-5,o),
(545,-4,o),
(552,-2,c),
(552,91,l),
(525,77,o),
(493,70,o),
(458,70,cs),
(373,70,o),
(309,112,o),
(274,186,c)
);
},
{
closed = 1;
nodes = (
(274,505,l),
(309,579,o),
(373,620,o),
(458,620,cs),
(493,620,o),
(525,613,o),
(552,599,c),
(552,693,l),
(523,700,o),
(492,704,o),
(458,704,cs),
(386,704,o),
(324,687,o),
(274,656,c)
);
},
{
closed = 1;
nodes = (
(274,674,l),
(156,622,o),
(90,501,o),
(90,345,cs),
(90,190,o),
(156,69,o),
(274,16,c),
(274,132,l),
(232,180,o),
(208,253,o),
(208,345,cs),
(208,437,o),
(232,510,o),
(274,558,c)
);
}
);
width = 955;
}
);
note = Q;
unicode = (81,113);
},
{
glyphname = R;
lastChange = "2025-10-01 16:42:36 +0000";
layers = (
{
hints = (
{
horizontal = 1;
place = (0,21);
target = up;
type = BottomGhost;
},
{
horizontal = 1;
place = (288,85);
type = Stem;
},
{
horizontal = 1;
place = (603,87);
type = Stem;
},
{
place = (95,110);
type = Stem;
},
{
place = (487,116);
type = Stem;
}
);
layerId = m01;
shapes = (
{
closed = 1;
nodes = (
(417,687,l),
(387,690,o),
(363,690,o),
(328,690,cs),
(90,690,l),
(90,0,l),
(200,0,l),
(200,288,l),
(307,288,ls),
(324,288,o),
(341,288,o),
(358,287,cs),
(383,285,o),
(402,277,o),
(417,263,c),
(417,384,l),
(405,379,o),
(391,376,o),
(377,375,cs),
(360,373,o),
(343,373,o),
(315,373,cs),
(200,373,l),
(200,603,l),
(322,603,ls),
(350,603,o),
(368,602,o),
(386,599,cs),
(397,597,o),
(408,595,o),
(417,592,c)
);
},
{
closed = 1;
nodes = (
(467,428,l),
(449,395,o),
(416,379,o),
(376,375,cs),
(359,373,o),
(342,373,o),
(314,373,cs),
(311,373,l),
(311,288,l),
(326,288,o),
(342,288,o),
(357,287,cs),
(420,283,o),
(447,237,o),
(456,164,cs),
(459,132,o),
(463,106,o),
(467,83,c)
);
},
{
closed = 1;
nodes = (
(467,677,l),
(453,681,o),
(438,684,o),
(422,686,cs),
(389,690,o),
(364,690,o),
(327,690,cs),
(311,690,l),
(311,603,l),
(321,603,ls),
(349,603,o),
(367,602,o),
(385,599,cs),
(423,594,o),
(451,580,o),
(467,551,c)
);
},
{
closed = 1;
nodes = (
(426,588,l),
(460,572,o),
(480,542,o),
(480,488,cs),
(480,438,o),
(459,406,o),
(426,389,c),
(426,252,l),
(441,231,o),
(450,201,o),
(455,164,cs),
(463,88,o),
(472,45,o),
(490,0,c),
(611,0,l),
(583,38,o),
(571,91,o),
(563,178,cs),
(556,250,o),
(530,310,o),
(468,337,c),
(541,359,o),
(596,412,o),
(596,502,cs),
(596,618,o),
(523,671,o),
(426,685,c)
);
}
);
width = 701;
},
{
hints = (
{
horizontal = 1;
place = (0,21);
target = up;
type = BottomGhost;
},
{
horizontal = 1;
place = (288,85);
type = Stem;
},
{
horizontal = 1;
place = (603,87);
type = Stem;
},
{
place = (95,110);
type = Stem;
},
{
place = (487,116);
type = Stem;
}
);
layerId = m002;
shapes = (
{
closed = 1;
nodes = (
(417,687,l),
(387,690,o),
(363,690,o),
(328,690,cs),
(90,690,l),
(90,0,l),
(200,0,l),
(200,288,l),
(307,288,ls),
(324,288,o),
(341,288,o),
(358,287,cs),
(383,285,o),
(402,277,o),
(417,263,c),
(417,384,l),
(405,379,o),
(391,376,o),
(377,375,cs),
(360,373,o),
(343,373,o),
(315,373,cs),
(200,373,l),
(200,603,l),
(322,603,ls),
(350,603,o),
(368,602,o),
(386,599,cs),
(397,597,o),
(408,595,o),
(417,592,c)
);
},
{
closed = 1;
nodes = (
(573,428,l),
(555,395,o),
(522,379,o),
(482,375,cs),
(465,373,o),
(448,373,o),
(420,373,cs),
(417,373,l),
(417,288,l),
(432,288,o),
(448,288,o),
(463,287,cs),
(526,283,o),
(553,237,o),
(562,164,cs),
(565,132,o),
(569,106,o),
(573,83,c)
);
},
{
closed = 1;
nodes = (
(573,677,l),
(559,681,o),
(544,684,o),
(528,686,cs),
(495,690,o),
(470,690,o),
(433,690,cs),
(417,690,l),
(417,603,l),
(427,603,ls),
(455,603,o),
(473,602,o),
(491,599,cs),
(529,594,o),
(557,580,o),
(573,551,c)
);
},
{
closed = 1;
nodes = (
(573,588,l),
(607,572,o),
(627,542,o),
(627,488,cs),
(627,438,o),
(606,406,o),
(573,389,c),
(573,252,l),
(588,231,o),
(597,201,o),
(602,164,cs),
(610,88,o),
(619,45,o),
(637,0,c),
(758,0,l),
(730,38,o),
(718,91,o),
(710,178,cs),
(703,250,o),
(677,310,o),
(615,337,c),
(688,359,o),
(743,412,o),
(743,502,cs),
(743,618,o),
(670,671,o),
(573,685,c)
);
}
);
width = 848;
}
);
note = R;
unicode = (82,114);
},
{
glyphname = S;
kernLeft = S;
kernRight = S;
lastChange = "2025-10-01 16:49:43 +0000";
layers = (
{
hints = (
{
horizontal = 1;
place = (620,84);
type = Stem;
},
{
horizontal = 1;
place = (-14,84);
type = Stem;
},
{
place = (450,116);
type = Stem;
},
{
place = (78,116);
type = Stem;
}
);
layerId = m01;
shapes = (
{
closed = 1;
nodes = (
(187,704,o),
(78,629,o),
(78,507,cs),
(78,387,o),
(165,338,o),
(296,307,cs),
(408,281,o),
(450,244,o),
(450,172,cs),
(450,109,o),
(393,70,o),
(321,70,cs),
(240,70,o),
(180,115,o),
(162,200,c),
(48,200,l),
(62,61,o),
(163,-14,o),
(321,-14,cs),
(455,-14,o),
(566,62,o),
(566,187,cs),
(566,302,o),
(494,367,o),
(342,402,cs),
(235,427,o),
(194,458,o),
(194,525,cs),
(194,590,o),
(245,620,o),
(310,620,cs),
(390,620,o),
(436,573,o),
(444,494,c),
(558,494,l),
(544,614,o),
(469,704,o),
(316,704,cs)
);
}
);
width = 595;
},
{
hints = (
{
horizontal = 1;
place = (620,84);
type = Stem;
},
{
horizontal = 1;
place = (-14,84);
type = Stem;
},
{
place = (450,116);
type = Stem;
},
{
place = (78,116);
type = Stem;
}
);
layerId = m002;
shapes = (
{
closed = 1;
nodes = (
(187,704,o),
(78,629,o),
(78,507,cs),
(78,387,o),
(165,338,o),
(296,307,cs),
(408,281,o),
(450,244,o),
(450,172,cs),
(450,109,o),
(393,70,o),
(321,70,cs),
(240,70,o),
(180,115,o),
(162,200,c),
(48,200,l),
(62,61,o),
(163,-14,o),
(321,-14,cs),
(455,-14,o),
(566,62,o),
(566,187,cs),
(566,302,o),
(494,367,o),
(342,402,cs),
(235,427,o),
(194,458,o),
(194,525,cs),
(194,590,o),
(245,620,o),
(310,620,cs),
(390,620,o),
(436,573,o),
(444,494,c),
(558,494,l),
(544,614,o),
(469,704,o),
(316,704,cs)
);
}
);
width = 595;
}
);
note = S;
unicode = (83,115);
},
{
glyphname = T;
kernLeft = T;
kernRight = T;
lastChange = "2025-10-01 16:42:36 +0000";
layers = (
{
hints = (
{
horizontal = 1;
place = (0,21);
target = up;
type = BottomGhost;
},
{
horizontal = 1;
place = (603,87);
type = Stem;
},
{
place = (270,109);
type = Stem;
}
);
layerId = m01;
shapes = (
{
closed = 1;
nodes = (
(681,603,l),
(681,690,l),
(90,690,l),
(90,603,l),
(331,603,l),
(331,0,l),
(440,0,l),
(440,603,l)
);
},
{
closed = 1;
nodes = (
(619,603,l),
(681,690,l),
(90,690,l),
(90,603,l),
(331,603,l),
(331,0,l),
(378,0,l),
(378,603,l)
);
},
{
closed = 1;
nodes = (
(620,603,l),
(620,690,l),
(116,690,l),
(116,603,l),
(357,603,l),
(357,0,l),
(379,0,l),
(379,603,l)
);
}
);
width = 771;
},
{
hints = (
{
horizontal = 1;
place = (0,21);
target = up;
type = BottomGhost;
},
{
horizontal = 1;
place = (603,87);
type = Stem;
},
{
place = (270,109);
type = Stem;
}
);
layerId = m002;
shapes = (
{
closed = 1;
nodes = (
(835,603,l),
(835,690,l),
(244,690,l),
(244,603,l),
(485,603,l),
(485,0,l),
(594,0,l),
(594,603,l)
);
},
{
closed = 1;
nodes = (
(673,603,l),
(735,690,l),
(144,690,l),
(144,603,l),
(385,603,l),
(385,0,l),
(432,0,l),
(432,603,l)
);
},
{
closed = 1;
nodes = (
(594,603,l),
(594,690,l),
(90,690,l),
(90,603,l),
(331,603,l),
(331,0,l),
(353,0,l),
(353,603,l)
);
}
);
width = 925;
}
);
note = T;
unicode = (84,116);
},
{
glyphname = U;
kernLeft = U;
kernRight = U;
lastChange = "2025-10-01 16:42:36 +0000";
layers = (
{
hints = (
{
horizontal = 1;
place = (-14,84);
type = Stem;
},
{
horizontal = 1;
place = (690,-20);
target = down;
type = TopGhost;
},
{
place = (88,109);
type = Stem;
},
{
place = (520,109);
type = Stem;
}
);
layerId = m01;
shapes = (
{
closed = 1;
nodes = (
(461,97,l),
(435,80,o),
(402,70,o),
(360,70,cs),
(290,70,o),
(243,98,o),
(219,143,c),
(219,12,l),
(257,-5,o),
(303,-14,o),
(360,-14,cs),
(398,-14,o),
(432,-10,o),
(461,-2,c)
);
},
{
closed = 1;
nodes = (
(252,103,l),
(222,127,o),
(205,164,o),
(201,209,cs),
(199,225,o),
(199,244,o),
(199,265,cs),
(199,690,l),
(90,690,l),
(90,267,ls),
(90,242,o),
(90,222,o),
(92,196,cs),
(99,107,o),
(148,30,o),
(252,0,c)
);
},
{
closed = 1;
nodes = (
(521,204,l),
(513,135,o),
(472,85,o),
(398,73,c),
(398,-13,l),
(447,-9,o),
(488,3,o),
(521,21,c)
);
},
{
closed = 1;
nodes = (
(463,-2,l),
(572,28,o),
(622,105,o),
(630,196,cs),
(632,222,o),
(632,242,o),
(632,267,cs),
(632,690,l),
(523,690,l),
(523,265,ls),
(523,244,o),
(523,225,o),
(521,209,cs),
(517,161,o),
(498,123,o),
(463,98,c)
);
}
);
width = 691;
},
{
hints = (
{
horizontal = 1;
place = (-14,84);
type = Stem;
},
{
horizontal = 1;
place = (690,-20);
target = down;
type = TopGhost;
},
{
place = (88,109);
type = Stem;
},
{
place = (520,109);
type = Stem;
}
);
layerId = m002;
shapes = (
{
closed = 1;
nodes = (
(494,97,l),
(468,80,o),
(435,70,o),
(393,70,cs),
(323,70,o),
(276,98,o),
(252,143,c),
(252,12,l),
(290,-5,o),
(336,-14,o),
(393,-14,cs),
(431,-14,o),
(465,-10,o),
(494,-2,c)
);
},
{
closed = 1;
nodes = (
(252,103,l),
(222,127,o),
(205,164,o),
(201,209,cs),
(199,225,o),
(199,244,o),
(199,265,cs),
(199,690,l),
(90,690,l),
(90,267,ls),
(90,242,o),
(90,222,o),
(92,196,cs),
(99,107,o),
(148,30,o),
(252,0,c)
);
},
{
closed = 1;
nodes = (
(617,204,l),
(609,135,o),
(568,85,o),
(494,73,c),
(494,-13,l),
(543,-9,o),
(584,3,o),
(617,21,c)
);
},
{
closed = 1;
nodes = (
(617,-2,l),
(726,28,o),
(776,105,o),
(784,196,cs),
(786,222,o),
(786,242,o),
(786,267,cs),
(786,690,l),
(677,690,l),
(677,265,ls),
(677,244,o),
(677,225,o),
(675,209,cs),
(671,161,o),
(652,123,o),
(617,98,c)
);
}
);
width = 876;
}
);
note = U;
unicode = (85,117);
},
{
glyphname = V;
kernLeft = V;
kernRight = V;
lastChange = "2025-10-01 16:42:36 +0000";
layers = (
{
hints = (
{
horizontal = 1;
place = (0,21);
target = up;
type = BottomGhost;
},
{
horizontal = 1;
place = (690,-20);
target = down;
type = TopGhost;
},
{
place = (32,631);
type = Stem;
},
{
horizontal = 1;
place = (0,84);
type = Stem;
}
);
layerId = m01;
shapes = (
{
closed = 1;
nodes = (
(329,317,l),
(209,690,l),
(90,690,l),
(329,5,l)
);
},
{
closed = 1;
nodes = (
(517,422,l),
(405,84,l),
(307,388,l),
(307,71,l),
(332,0,l),
(474,0,l),
(517,118,l)
);
},
{
closed = 1;
nodes = (
(590,643,l),
(479,307,l),
(479,13,l),
(590,321,l)
);
},
{
closed = 1;
nodes = (
(560,237,l),
(723,690,l),
(606,690,l),
(560,550,l)
);
}
);
width = 813;
},
{
hints = (
{
horizontal = 1;
place = (0,21);
target = up;
type = BottomGhost;
},
{
horizontal = 1;
place = (690,-20);
target = down;
type = TopGhost;
},
{
place = (32,631);
type = Stem;
},
{
horizontal = 1;
place = (0,84);
type = Stem;
}
);
layerId = m002;
shapes = (
{
closed = 1;
nodes = (
(329,317,l),
(209,690,l),
(90,690,l),
(329,5,l)
);
},
{
closed = 1;
nodes = (
(539,422,l),
(427,84,l),
(329,388,l),
(329,71,l),
(354,0,l),
(496,0,l),
(539,118,l)
);
},
{
closed = 1;
nodes = (
(650,643,l),
(539,307,l),
(539,13,l),
(650,321,l)
);
},
{
closed = 1;
nodes = (
(650,237,l),
(813,690,l),
(696,690,l),
(650,550,l)
);
}
);
width = 903;
}
);
note = V;
unicode = (86,118);
},
{
glyphname = W;
kernLeft = W;
kernRight = W;
lastChange = "2025-10-01 16:42:36 +0000";
layers = (
{
hints = (
{
horizontal = 1;
place = (0,21);
target = up;
type = BottomGhost;
},
{
horizontal = 1;
place = (690,-20);
target = down;
type = TopGhost;
},
{
place = (26,940);
type = Stem;
},
{
horizontal = 1;
place = (0,88);
type = Stem;
},
{
horizontal = 1;
place = (588,92);
type = Stem;
}
);
layerId = m01;
shapes = (
{
closed = 1;
nodes = (
(691,451,l),
(637,680,l),
(486,680,l),
(431,452,l),
(431,68,l),
(559,588,l),
(691,27,l)
);
},
{
closed = 1;
nodes = (
(465,593,l),
(343,91,l),
(211,690,l),
(90,690,l),
(268,0,l),
(414,0,l),
(465,207,l)
);
},
{
closed = 1;
nodes = (
(661,157,l),
(698,0,l),
(843,0,l),
(1031,690,l),
(917,690,l),
(777,88,l),
(661,581,l)
);
}
);
width = 1121;
},
{
hints = (
{
horizontal = 1;
place = (0,21);
target = up;
type = BottomGhost;
},
{
horizontal = 1;
place = (690,-20);
target = down;
type = TopGhost;
},
{
place = (26,940);
type = Stem;
},
{
horizontal = 1;
place = (0,88);
type = Stem;
},
{
horizontal = 1;
place = (588,92);
type = Stem;
}
);
layerId = m002;
shapes = (
{
closed = 1;
nodes = (
(725,451,l),
(671,680,l),
(520,680,l),
(465,452,l),
(465,68,l),
(593,588,l),
(725,27,l)
);
},
{
closed = 1;
nodes = (
(465,593,l),
(343,91,l),
(211,690,l),
(90,690,l),
(268,0,l),
(414,0,l),
(465,207,l)
);
},
{
closed = 1;
nodes = (
(724,157,l),
(761,0,l),
(906,0,l),
(1094,690,l),
(980,690,l),
(840,88,l),
(724,581,l)
);
}
);
width = 1184;
}
);
note = W;
unicode = (87,119);
},
{
glyphname = X;
lastChange = "2025-10-01 16:42:36 +0000";
layers = (
{
hints = (
{
horizontal = 1;
place = (0,21);
target = up;
type = BottomGhost;
},
{
horizontal = 1;
place = (690,-20);
target = down;
type = TopGhost;
},
{
place = (22,625);
type = Stem;
}
);
layerId = m01;
shapes = (
{
closed = 1;
nodes = (
(341,519,l),
(234,690,l),
(108,690,l),
(337,348,l),
(90,0,l),
(219,0,l),
(341,190,l)
);
},
{
closed = 1;
nodes = (
(533,618,l),
(404,420,l),
(307,574,l),
(307,393,l),
(337,348,l),
(307,306,l),
(307,136,l),
(399,279,l),
(533,79,l),
(533,257,l),
(467,351,l),
(533,445,l)
);
},
{
closed = 1;
nodes = (
(480,158,l),
(587,0,l),
(715,0,l),
(480,332,l)
);
},
{
closed = 1;
nodes = (
(480,370,l),
(707,690,l),
(581,690,l),
(480,537,l)
);
}
);
width = 805;
},
{
hints = (
{
horizontal = 1;
place = (0,21);
target = up;
type = BottomGhost;
},
{
horizontal = 1;
place = (690,-20);
target = down;
type = TopGhost;
},
{
place = (22,625);
type = Stem;
}
);
layerId = m002;
shapes = (
{
closed = 1;
nodes = (
(341,519,l),
(234,690,l),
(108,690,l),
(337,348,l),
(90,0,l),
(219,0,l),
(341,190,l)
);
},
{
closed = 1;
nodes = (
(567,618,l),
(438,420,l),
(341,574,l),
(341,393,l),
(371,348,l),
(341,306,l),
(341,136,l),
(433,279,l),
(567,79,l),
(567,257,l),
(501,351,l),
(567,445,l)
);
},
{
closed = 1;
nodes = (
(567,158,l),
(674,0,l),
(802,0,l),
(567,332,l)
);
},
{
closed = 1;
nodes = (
(567,370,l),
(794,690,l),
(668,690,l),
(567,537,l)
);
}
);
width = 892;
}
);
note = X;
unicode = (88,120);
},
{
glyphname = Y;
kernLeft = Y;
kernRight = Y;
lastChange = "2025-10-01 16:42:36 +0000";
layers = (
{
hints = (
{
horizontal = 1;
place = (0,21);
target = up;
type = BottomGhost;
},
{
horizontal = 1;
place = (690,-20);
target = down;
type = TopGhost;
},
{
place = (262,109);
type = Stem;
}
);
layerId = m01;
shapes = (
{
closed = 1;
nodes = (
(326,503,l),
(215,701,l),
(90,701,l),
(326,295,l)
);
},
{
closed = 1;
nodes = (
(523,600,l),
(400,371,l),
(304,543,l),
(304,334,l),
(341,270,l),
(341,0,l),
(450,0,l),
(450,270,l),
(523,396,l)
);
},
{
closed = 1;
nodes = (
(467,300,l),
(694,690,l),
(572,690,l),
(467,496,l)
);
}
);
width = 784;
},
{
hints = (
{
horizontal = 1;
place = (0,21);
target = up;
type = BottomGhost;
},
{
horizontal = 1;
place = (690,-20);
target = down;
type = TopGhost;
},
{
place = (262,109);
type = Stem;
}
);
layerId = m002;
shapes = (
{
closed = 1;
nodes = (
(326,503,l),
(215,701,l),
(90,701,l),
(326,295,l)
);
},
{
closed = 1;
nodes = (
(545,600,l),
(422,371,l),
(326,543,l),
(326,334,l),
(363,270,l),
(363,0,l),
(472,0,l),
(472,270,l),
(545,396,l)
);
},
{
closed = 1;
nodes = (
(545,300,l),
(772,690,l),
(650,690,l),
(545,496,l)
);
}
);
width = 862;
}
);
note = Y;
unicode = (89,121);
},
{
glyphname = Z;
kernLeft = Z;
kernRight = Z;
lastChange = "2025-10-01 16:42:36 +0000";
layers = (
{
hints = (
{
horizontal = 1;
place = (0,88);
type = Stem;
},
{
horizontal = 1;
place = (603,87);
type = Stem;
},
{
place = (48,533);
type = Stem;
}
);
layerId = m01;
shapes = (
{
closed = 1;
nodes = (
(403,690,l),
(118,690,l),
(118,603,l),
(403,603,l)
);
},
{
closed = 1;
nodes = (
(322,0,l),
(622,0,l),
(622,88,l),
(322,88,l)
);
},
{
closed = 1;
nodes = (
(322,603,l),
(489,603,l),
(322,386,l),
(322,221,l),
(617,604,l),
(617,690,l),
(322,690,l)
);
},
{
closed = 1;
nodes = (
(250,0,l),
(403,0,l),
(403,88,l),
(250,88,l)
);
},
{
closed = 1;
nodes = (
(250,126,l),
(403,325,l),
(403,491,l),
(250,292,l)
);
},
{
closed = 1;
nodes = (
(306,365,l),
(90,84,l),
(90,0,l),
(306,0,l),
(306,88,l),
(221,88,l),
(306,199,l)
);
}
);
width = 712;
},
{
hints = (
{
horizontal = 1;
place = (0,88);
type = Stem;
},
{
horizontal = 1;
place = (603,87);
type = Stem;
},
{
place = (48,533);
type = Stem;
}
);
layerId = m002;
shapes = (
{
closed = 1;
nodes = (
(458,690,l),
(173,690,l),
(173,603,l),
(458,603,l)
);
},
{
closed = 1;
nodes = (
(458,0,l),
(758,0,l),
(758,88,l),
(458,88,l)
);
},
{
closed = 1;
nodes = (
(458,603,l),
(625,603,l),
(458,386,l),
(458,221,l),
(753,604,l),
(753,690,l),
(458,690,l)
);
},
{
closed = 1;
nodes = (
(305,0,l),
(458,0,l),
(458,88,l),
(305,88,l)
);
},
{
closed = 1;
nodes = (
(305,126,l),
(458,325,l),
(458,491,l),
(305,292,l)
);
},
{
closed = 1;
nodes = (
(306,365,l),
(90,84,l),
(90,0,l),
(306,0,l),
(306,88,l),
(221,88,l),
(306,199,l)
);
}
);
width = 848;
}
);
note = Z;
unicode = (90,122);
},
{
glyphname = zero;
lastChange = "2024-05-10 23:29:30 +0000";
layers = (
{
hints = (
{
horizontal = 1;
place = (-14,84);
type = Stem;
},
{
horizontal = 1;
place = (620,84);
type = Stem;
},
{
place = (42,119);
type = Stem;
},
{
place = (439,119);
type = Stem;
}
);
layerId = m01;
shapes = (
{
closed = 1;
nodes = (
(258,691,l),
(135,649,o),
(90,517,o),
(90,345,cs),
(90,174,o),
(135,42,o),
(258,0,c),
(258,114,l),
(224,159,o),
(209,237,o),
(209,345,cs),
(209,454,o),
(224,532,o),
(258,576,c)
);
},
{
closed = 1;
nodes = (
(494,662,l),
(457,689,o),
(409,704,o),
(348,704,cs),
(298,704,o),
(256,694,o),
(222,675,c),
(222,489,l),
(240,575,o),
(281,620,o),
(348,620,cs),
(447,620,o),
(487,524,o),
(487,345,cs),
(487,168,o),
(447,70,o),
(348,70,cs),
(281,70,o),
(240,116,o),
(222,202,c),
(222,16,l),
(256,-4,o),
(298,-14,o),
(348,-14,cs),
(409,-14,o),
(457,1,o),
(494,28,c)
);
},
{
closed = 1;
nodes = (
(419,597,l),
(467,559,o),
(487,473,o),
(487,345,cs),
(487,218,o),
(467,132,o),
(419,93,c),
(419,-6,l),
(557,28,o),
(606,166,o),
(606,345,cs),
(606,526,o),
(557,663,o),
(419,696,c)
);
}
);
width = 696;
},
{
hints = (
{
horizontal = 1;
place = (-14,84);
type = Stem;
},
{
horizontal = 1;
place = (620,84);
type = Stem;
},
{
place = (42,119);
type = Stem;
},
{
place = (439,119);
type = Stem;
}
);
layerId = m002;
shapes = (
{
closed = 1;
nodes = (
(258,691,l),
(135,649,o),
(90,517,o),
(90,345,cs),
(90,174,o),
(135,42,o),
(258,0,c),
(258,114,l),
(224,159,o),
(209,237,o),
(209,345,cs),
(209,454,o),
(224,532,o),
(258,576,c)
);
},
{
closed = 1;
nodes = (
(529,662,l),
(492,689,o),
(444,704,o),
(383,704,cs),
(333,704,o),
(291,694,o),
(257,675,c),
(257,489,l),
(275,575,o),
(316,620,o),
(383,620,cs),
(482,620,o),
(522,524,o),
(522,345,cs),
(522,168,o),
(482,70,o),
(383,70,cs),
(316,70,o),
(275,116,o),
(257,202,c),
(257,16,l),
(291,-4,o),
(333,-14,o),
(383,-14,cs),
(444,-14,o),
(492,1,o),
(529,28,c)
);
},
{
closed = 1;
nodes = (
(529,597,l),
(577,559,o),
(597,473,o),
(597,345,cs),
(597,218,o),
(577,132,o),
(529,93,c),
(529,-6,l),
(667,28,o),
(716,166,o),
(716,345,cs),
(716,526,o),
(667,663,o),
(529,696,c)
);
}
);
width = 806;
}
);
note = zero;
unicode = 48;
},
{
glyphname = one;
lastChange = "2024-05-10 23:35:05 +0000";
layers = (
{
hints = (
{
horizontal = 1;
place = (0,21);
target = up;
type = BottomGhost;
},
{
horizontal = 1;
place = (690,-20);
target = down;
type = TopGhost;
},
{
place = (322,110);
type = Stem;
}
);
layerId = m01;
shapes = (
{
closed = 1;
nodes = (
(246,553,l),
(285,575,l),
(285,0,l),
(395,0,l),
(395,690,l),
(334,690,ls),
(304,690,o),
(276,684,o),
(246,666,c)
);
},
{
closed = 1;
nodes = (
(182,627,l),
(90,571,l),
(90,463,l),
(182,516,l)
);
},
{
closed = 1;
nodes = (
(156,501,l),
(285,575,l),
(285,0,l),
(308,0,l),
(308,688,l),
(286,685,o),
(265,678,o),
(242,664,cs),
(156,611,l)
);
}
);
width = 485;
},
{
hints = (
{
horizontal = 1;
place = (0,21);
target = up;
type = BottomGhost;
},
{
horizontal = 1;
place = (690,-20);
target = down;
type = TopGhost;
},
{
place = (322,110);
type = Stem;
}
);
layerId = m002;
shapes = (
{
closed = 1;
nodes = (
(334,553,l),
(373,575,l),
(373,0,l),
(483,0,l),
(483,690,l),
(422,690,ls),
(392,690,o),
(364,684,o),
(334,666,c)
);
},
{
closed = 1;
nodes = (
(182,627,l),
(90,571,l),
(90,463,l),
(182,516,l)
);
},
{
closed = 1;
nodes = (
(182,501,l),
(311,575,l),
(311,0,l),
(334,0,l),
(334,688,l),
(312,685,o),
(291,678,o),
(268,664,cs),
(182,611,l)
);
}
);
width = 573;
}
);
note = one;
unicode = 49;
},
{
glyphname = two;
lastChange = "2025-10-01 16:38:54 +0000";
layers = (
{
hints = (
{
horizontal = 1;
place = (0,88);
type = Stem;
},
{
horizontal = 1;
place = (621,84);
type = Stem;
},
{
place = (426,119);
type = Stem;
}
);
layerId = m01;
shapes = (
{
closed = 1;
nodes = (
(406,238,ls),
(427,259,o),
(446,278,o),
(463,295,c),
(463,685,l),
(433,698,o),
(397,705,o),
(355,705,cs),
(320,705,o),
(286,700,o),
(258,691,c),
(258,589,l),
(279,610,o),
(306,621,o),
(343,621,cs),
(418,621,o),
(456,568,o),
(456,501,cs),
(456,435,o),
(418,385,o),
(331,299,cs),
(258,225,l),
(258,92,l)
);
},
{
closed = 1;
nodes = (
(309,0,l),
(309,88,l),
(254,88,l),
(309,143,l),
(309,277,l),
(90,56,l),
(90,0,l)
);
},
{
closed = 1;
nodes = (
(463,0,l),
(463,88,l),
(258,88,l),
(258,0,l)
);
},
{
closed = 1;
nodes = (
(308,88,l),
(308,225,l),
(308,92,l),
(304,88,l)
);
},
{
closed = 1;
nodes = (
(571,0,l),
(571,88,l),
(417,88,l),
(417,0,l)
);
},
{
closed = 1;
nodes = (
(215,470,l),
(216,480,ls),
(224,557,o),
(253,605,o),
(309,618,c),
(309,702,l),
(191,687,o),
(118,610,o),
(106,480,cs),
(105,470,l)
);
},
{
closed = 1;
nodes = (
(530,360,o),
(575,423,o),
(575,511,cs),
(575,603,o),
(522,678,o),
(417,699,c),
(417,597,l),
(443,575,o),
(456,540,o),
(456,501,cs),
(456,463,o),
(444,431,o),
(417,394,c),
(417,249,l)
);
}
);
width = 665;
},
{
hints = (
{
horizontal = 1;
place = (0,88);
type = Stem;
},
{
horizontal = 1;
place = (621,84);
type = Stem;
},
{
place = (426,119);
type = Stem;
}
);
layerId = m002;
shapes = (
{
closed = 1;
nodes = (
(456,238,ls),
(477,259,o),
(496,278,o),
(513,295,c),
(513,685,l),
(483,698,o),
(447,705,o),
(405,705,cs),
(370,705,o),
(336,700,o),
(308,691,c),
(308,589,l),
(329,610,o),
(356,621,o),
(393,621,cs),
(468,621,o),
(506,568,o),
(506,501,cs),
(506,435,o),
(468,385,o),
(381,299,cs),
(308,225,l),
(308,92,l)
);
},
{
closed = 1;
nodes = (
(309,0,l),
(309,88,l),
(254,88,l),
(309,143,l),
(309,277,l),
(90,56,l),
(90,0,l)
);
},
{
closed = 1;
nodes = (
(513,0,l),
(513,88,l),
(308,88,l),
(308,0,l)
);
},
{
closed = 1;
nodes = (
(308,88,l),
(308,225,l),
(308,92,l),
(304,88,l)
);
},
{
closed = 1;
nodes = (
(666,0,l),
(666,88,l),
(512,88,l),
(512,0,l)
);
},
{
closed = 1;
nodes = (
(215,470,l),
(216,480,ls),
(224,557,o),
(253,605,o),
(309,618,c),
(309,702,l),
(191,687,o),
(118,610,o),
(106,480,cs),
(105,470,l)
);
},
{
closed = 1;
nodes = (
(625,360,o),
(670,423,o),
(670,511,cs),
(670,603,o),
(617,678,o),
(512,699,c),
(512,597,l),
(538,575,o),
(551,540,o),
(551,501,cs),
(551,463,o),
(539,431,o),
(512,394,c),
(512,249,l)
);
}
);
width = 760;
}
);
note = two;
unicode = 50;
},
{
glyphname = three;
lastChange = "2024-05-10 23:37:11 +0000";
layers = (
{
hints = (
{
horizontal = 1;
place = (-14,84);
type = Stem;
},
{
horizontal = 1;
place = (309,81.5);
type = Stem;
},
{
horizontal = 1;
place = (620,84);
type = Stem;
},
{
place = (433,119);
type = Stem;
},
{
place = (417,119);
type = Stem;
}
);
layerId = m01;
shapes = (
{
closed = 1;
nodes = (
(305,75,l),
(249,88,o),
(209,129,o),
(201,198,cs),
(200,208,l),
(90,208,l),
(91,198,ls),
(105,65,o),
(184,-1,o),
(305,-12,c)
);
},
{
closed = 1;
nodes = (
(471,141,l),
(452,96,o),
(407,70,o),
(347,70,cs),
(319,70,o),
(294,75,o),
(273,86,c),
(273,-8,l),
(294,-12,o),
(317,-14,o),
(342,-14,cs),
(389,-14,o),
(434,-5,o),
(471,11,c)
);
},
{
closed = 1;
nodes = (
(305,699,l),
(194,678,o),
(130,602,o),
(120,497,cs),
(119,487,l),
(228,487,l),
(229,497,ls),
(235,555,o),
(263,594,o),
(305,611,c)
);
},
{
closed = 1;
nodes = (
(471,686,l),
(442,698,o),
(407,704,o),
(367,704,cs),
(332,704,o),
(300,699,o),
(273,691,c),
(273,591,l),
(294,610,o),
(323,620,o),
(355,620,cs),
(422,620,o),
(465,577,o),
(465,514,cs),
(465,437,o),
(408,392,o),
(330,391,cs),
(310,390,l),
(310,309,l),
(330,309,ls),
(406,308,o),
(453,285,o),
(471,241,c),
(471,363,l),
(467,364,o),
(463,365,o),
(459,366,c),
(463,367,o),
(467,369,o),
(471,370,c)
);
},
{
closed = 1;
nodes = (
(420,603,l),
(448,585,o),
(465,553,o),
(465,514,cs),
(465,472,o),
(448,439,o),
(420,418,c),
(420,292,l),
(461,273,o),
(481,239,o),
(481,190,cs),
(481,142,o),
(458,106,o),
(420,86,c),
(420,-6,l),
(525,18,o),
(600,90,o),
(600,195,cs),
(600,286,o),
(548,344,o),
(459,366,c),
(537,388,o),
(584,447,o),
(584,527,cs),
(584,615,o),
(525,683,o),
(420,700,c)
);
}
);
width = 690;
},
{
layerId = m002;
shapes = (
{
closed = 1;
nodes = (
(305,75,l),
(249,88,o),
(209,129,o),
(201,198,cs),
(200,208,l),
(90,208,l),
(91,198,ls),
(105,65,o),
(184,-1,o),
(305,-12,c)
);
},
{
closed = 1;
nodes = (
(503,141,l),
(484,96,o),
(439,70,o),
(379,70,cs),
(351,70,o),
(326,75,o),
(305,86,c),
(305,-8,l),
(326,-12,o),
(349,-14,o),
(374,-14,cs),
(421,-14,o),
(466,-5,o),
(503,11,c)
);
},
{
closed = 1;
nodes = (
(305,699,l),
(194,678,o),
(130,602,o),
(120,497,cs),
(119,487,l),
(228,487,l),
(229,497,ls),
(235,555,o),
(263,594,o),
(305,611,c)
);
},
{
closed = 1;
nodes = (
(503,686,l),
(474,698,o),
(439,704,o),
(399,704,cs),
(364,704,o),
(332,699,o),
(305,691,c),
(305,591,l),
(326,610,o),
(355,620,o),
(387,620,cs),
(454,620,o),
(497,577,o),
(497,514,cs),
(497,437,o),
(440,392,o),
(362,391,cs),
(342,390,l),
(342,309,l),
(362,309,ls),
(438,308,o),
(485,285,o),
(503,241,c),
(503,363,l),
(499,364,o),
(495,365,o),
(491,366,c),
(495,367,o),
(499,369,o),
(503,370,c)
);
},
{
closed = 1;
nodes = (
(503,603,l),
(531,585,o),
(548,553,o),
(548,514,cs),
(548,472,o),
(531,439,o),
(503,418,c),
(503,292,l),
(544,273,o),
(564,239,o),
(564,190,cs),
(564,142,o),
(541,106,o),
(503,86,c),
(503,-6,l),
(608,18,o),
(683,90,o),
(683,195,cs),
(683,286,o),
(631,344,o),
(542,366,c),
(620,388,o),
(667,447,o),
(667,527,cs),
(667,615,o),
(608,683,o),
(503,700,c)
);
}
);
width = 773;
}
);
note = three;
unicode = 51;
},
{
glyphname = four;
lastChange = "2024-05-10 23:37:55 +0000";
layers = (
{
hints = (
{
horizontal = 1;
place = (0,21);
target = up;
type = BottomGhost;
},
{
horizontal = 1;
place = (169,88);
type = Stem;
},
{
horizontal = 1;
place = (690,-20);
target = down;
type = TopGhost;
},
{
place = (372,109);
type = Stem;
}
);
layerId = m01;
shapes = (
{
closed = 1;
nodes = (
(398,507,l),
(409,524,o),
(419,540,o),
(428,556,c),
(428,257,l),
(398,257,l),
(398,169,l),
(428,169,l),
(428,0,l),
(537,0,l),
(537,169,l),
(624,169,l),
(624,257,l),
(537,257,l),
(537,690,l),
(424,690,l),
(398,654,l)
);
},
{
closed = 1;
nodes = (
(291,506,l),
(90,226,l),
(90,169,l),
(291,169,l),
(291,257,l),
(219,257,l),
(291,358,l)
);
},
{
closed = 1;
nodes = (
(265,321,l),
(376,475,ls),
(397,503,o),
(413,530,o),
(428,556,c),
(428,257,l),
(265,257,l),
(265,169,l),
(428,169,l),
(428,0,l),
(452,0,l),
(452,690,l),
(424,690,l),
(265,470,l)
);
}
);
width = 714;
},
{
hints = (
{
horizontal = 1;
place = (0,21);
target = up;
type = BottomGhost;
},
{
horizontal = 1;
place = (169,88);
type = Stem;
},
{
horizontal = 1;
place = (690,-20);
target = down;
type = TopGhost;
},
{
place = (372,109);
type = Stem;
}
);
layerId = m002;
shapes = (
{
closed = 1;
nodes = (
(478,507,l),
(489,524,o),
(499,540,o),
(508,556,c),
(508,257,l),
(478,257,l),
(478,169,l),
(508,169,l),
(508,0,l),
(617,0,l),
(617,169,l),
(704,169,l),
(704,257,l),
(617,257,l),
(617,690,l),
(504,690,l),
(478,654,l)
);
},
{
closed = 1;
nodes = (
(291,506,l),
(90,226,l),
(90,169,l),
(291,169,l),
(291,257,l),
(219,257,l),
(291,358,l)
);
},
{
closed = 1;
nodes = (
(291,321,l),
(402,475,ls),
(423,503,o),
(439,530,o),
(454,556,c),
(454,257,l),
(291,257,l),
(291,169,l),
(454,169,l),
(454,0,l),
(478,0,l),
(478,690,l),
(450,690,l),
(291,470,l)
);
}
);
width = 794;
}
);
note = four;
unicode = 52;
},
{
glyphname = five;
lastChange = "2024-05-11 00:14:05 +0000";
layers = (
{
hints = (
{
horizontal = 1;
place = (-14,84);
type = Stem;
},
{
horizontal = 1;
place = (375,84);
type = Stem;
},
{
horizontal = 1;
place = (603,87);
type = Stem;
},
{
place = (436,119);
type = Stem;
}
);
layerId = m01;
shapes = (
{
closed = 1;
nodes = (
(308,71,l),
(246,80,o),
(214,122,o),
(201,186,c),
(200,196,l),
(90,196,l),
(91,186,ls),
(104,60,o),
(179,-6,o),
(308,-13,c)
);
},
{
closed = 1;
nodes = (
(477,433,l),
(444,450,o),
(405,459,o),
(359,459,cs),
(322,459,o),
(290,452,o),
(261,437,c),
(261,356,l),
(282,369,o),
(306,375,o),
(335,375,cs),
(420,375,o),
(470,314,o),
(470,221,cs),
(470,127,o),
(417,70,o),
(332,70,cs),
(303,70,o),
(280,76,o),
(261,88,c),
(261,-7,l),
(284,-12,o),
(308,-14,o),
(335,-14,cs),
(386,-14,o),
(436,-1,o),
(477,23,c)
);
},
{
closed = 1;
nodes = (
(477,690,l),
(261,690,l),
(261,603,l),
(477,603,l)
);
},
{
closed = 1;
nodes = (
(308,690,l),
(150,690,l),
(101,286,l),
(204,286,l),
(229,340,o),
(263,366,o),
(308,373,c),
(308,454,l),
(287,449,o),
(270,442,o),
(252,431,c),
(233,416,o),
(224,404,o),
(211,384,c),
(239,603,l),
(308,603,l)
);
},
{
closed = 1;
nodes = (
(417,349,l),
(451,322,o),
(469,277,o),
(469,221,cs),
(469,165,o),
(450,122,o),
(417,97,c),
(417,-2,l),
(513,26,o),
(588,105,o),
(588,226,cs),
(588,343,o),
(529,431,o),
(417,453,c)
);
},
{
closed = 1;
nodes = (
(417,603,l),
(559,603,l),
(559,690,l),
(417,690,l)
);
}
);
width = 678;
},
{
hints = (
{
horizontal = 1;
place = (-14,84);
type = Stem;
},
{
horizontal = 1;
place = (375,84);
type = Stem;
},
{
horizontal = 1;
place = (603,87);
type = Stem;
},
{
place = (436,119);
type = Stem;
}
);
layerId = m002;
shapes = (
{
closed = 1;
nodes = (
(308,71,l),
(246,80,o),
(214,122,o),
(201,186,c),
(200,196,l),
(90,196,l),
(91,186,ls),
(104,60,o),
(179,-6,o),
(308,-13,c)
);
},
{
closed = 1;
nodes = (
(524,433,l),
(491,450,o),
(452,459,o),
(406,459,cs),
(369,459,o),
(337,452,o),
(308,437,c),
(308,356,l),
(329,369,o),
(353,375,o),
(382,375,cs),
(467,375,o),
(517,314,o),
(517,221,cs),
(517,127,o),
(464,70,o),
(379,70,cs),
(350,70,o),
(327,76,o),
(308,88,c),
(308,-7,l),
(331,-12,o),
(355,-14,o),
(382,-14,cs),
(433,-14,o),
(483,-1,o),
(524,23,c)
);
},
{
closed = 1;
nodes = (
(524,690,l),
(308,690,l),
(308,603,l),
(524,603,l)
);
},
{
closed = 1;
nodes = (
(308,690,l),
(150,690,l),
(101,286,l),
(204,286,l),
(229,340,o),
(263,366,o),
(308,373,c),
(308,454,l),
(287,449,o),
(270,442,o),
(252,431,c),
(233,416,o),
(224,404,o),
(211,384,c),
(239,603,l),
(308,603,l)
);
},
{
closed = 1;
nodes = (
(523,349,l),
(557,322,o),
(575,277,o),
(575,221,cs),
(575,165,o),
(556,122,o),
(523,97,c),
(523,-2,l),
(619,26,o),
(694,105,o),
(694,226,cs),
(694,343,o),
(635,431,o),
(523,453,c)
);
},
{
closed = 1;
nodes = (
(523,603,l),
(665,603,l),
(665,690,l),
(523,690,l)
);
}
);
width = 784;
}
);
note = five;
unicode = 53;
},
{
glyphname = six;
lastChange = "2024-05-11 00:14:21 +0000";
layers = (
{
hints = (
{
horizontal = 1;
place = (-14,84);
type = Stem;
},
{
horizontal = 1;
place = (381,84);
type = Stem;
},
{
horizontal = 1;
place = (620,84);
type = Stem;
},
{
place = (46,116);
type = Stem;
},
{
place = (433,119);
type = Stem;
}
);
layerId = m01;
shapes = (
{
closed = 1;
nodes = (
(306,698,l),
(182,670,o),
(90,549,o),
(90,317,cs),
(90,104,o),
(167,3,o),
(306,-12,c),
(306,75,l),
(248,92,o),
(212,150,o),
(212,224,cs),
(212,309,o),
(253,360,o),
(306,376,c),
(306,458,l),
(285,453,o),
(266,443,o),
(246,426,c),
(227,405,o),
(215,390,o),
(206,363,c),
(212,510,o),
(249,585,o),
(306,610,c)
);
},
{
closed = 1;
nodes = (
(482,440,l),
(450,456,o),
(412,465,o),
(368,465,cs),
(325,465,o),
(294,459,o),
(262,438,c),
(262,352,l),
(285,371,o),
(312,381,o),
(342,381,cs),
(436,381,o),
(477,311,o),
(477,222,cs),
(477,133,o),
(423,70,o),
(343,70,cs),
(311,70,o),
(284,81,o),
(262,99,c),
(262,-4,l),
(287,-11,o),
(314,-14,o),
(343,-14,cs),
(394,-14,o),
(442,-1,o),
(482,22,c)
);
},
{
closed = 1;
nodes = (
(482,678,l),
(449,695,o),
(410,704,o),
(365,704,cs),
(329,704,o),
(294,697,o),
(262,683,c),
(262,576,l),
(287,607,o),
(319,620,o),
(357,620,cs),
(420,620,o),
(457,585,o),
(473,515,cs),
(475,505,l),
(482,505,l)
);
},
{
closed = 1;
nodes = (
(443,337,l),
(466,308,o),
(477,268,o),
(477,222,cs),
(477,180,o),
(465,143,o),
(443,116,c),
(443,4,l),
(534,38,o),
(596,121,o),
(596,235,cs),
(596,342,o),
(542,427,o),
(443,455,c)
);
},
{
closed = 1;
nodes = (
(443,583,l),
(457,566,o),
(467,543,o),
(473,515,cs),
(475,505,l),
(589,505,l),
(588,515,ls),
(578,604,o),
(526,669,o),
(443,693,c)
);
}
);
width = 686;
},
{
hints = (
{
horizontal = 1;
place = (-14,84);
type = Stem;
},
{
horizontal = 1;
origin = (0,13);
place = (376,84);
type = Stem;
},
{
horizontal = 1;
origin = (2,10);
place = (620,84);
type = Stem;
},
{
place = (46,116);
type = Stem;
},
{
place = (433,119);
type = Stem;
}
);
layerId = m002;
shapes = (
{
closed = 1;
nodes = (
(306,698,l),
(182,670,o),
(90,549,o),
(90,317,cs),
(90,104,o),
(167,3,o),
(306,-12,c),
(306,75,l),
(248,92,o),
(212,150,o),
(212,224,cs),
(212,309,o),
(253,360,o),
(306,376,c),
(306,458,l),
(285,453,o),
(266,443,o),
(246,426,c),
(227,405,o),
(215,390,o),
(206,363,c),
(212,510,o),
(249,585,o),
(306,610,c)
);
},
{
closed = 1;
nodes = (
(526,440,l),
(494,456,o),
(456,465,o),
(412,465,cs),
(369,465,o),
(338,459,o),
(306,438,c),
(306,352,l),
(329,371,o),
(356,381,o),
(386,381,cs),
(480,381,o),
(521,311,o),
(521,222,cs),
(521,133,o),
(467,70,o),
(387,70,cs),
(355,70,o),
(328,81,o),
(306,99,c),
(306,-4,l),
(331,-11,o),
(358,-14,o),
(387,-14,cs),
(438,-14,o),
(486,-1,o),
(526,22,c)
);
},
{
closed = 1;
nodes = (
(526,678,l),
(493,695,o),
(454,704,o),
(409,704,cs),
(373,704,o),
(338,697,o),
(306,683,c),
(306,576,l),
(331,607,o),
(363,620,o),
(401,620,cs),
(464,620,o),
(501,585,o),
(517,515,cs),
(519,505,l),
(526,505,l)
);
},
{
closed = 1;
nodes = (
(526,337,l),
(549,308,o),
(560,268,o),
(560,222,cs),
(560,180,o),
(548,143,o),
(526,116,c),
(526,4,l),
(617,38,o),
(679,121,o),
(679,235,cs),
(679,342,o),
(625,427,o),
(526,455,c)
);
},
{
closed = 1;
nodes = (
(526,583,l),
(540,566,o),
(550,543,o),
(556,515,cs),
(558,505,l),
(672,505,l),
(671,515,ls),
(661,604,o),
(609,669,o),
(526,693,c)
);
}
);
width = 769;
}
);
note = six;
unicode = 54;
},
{
glyphname = seven;
lastChange = "2024-05-10 23:39:53 +0000";
layers = (
{
hints = (
{
horizontal = 1;
place = (0,21);
target = up;
type = BottomGhost;
},
{
horizontal = 1;
place = (603,87);
type = Stem;
},
{
place = (52,506);
type = Stem;
}
);
layerId = m01;
shapes = (
{
closed = 1;
nodes = (
(439,555,l),
(140,0,l),
(258,0,l),
(439,340,l)
);
},
{
closed = 1;
nodes = (
(439,690,l),
(90,690,l),
(90,603,l),
(439,603,l)
);
},
{
closed = 1;
nodes = (
(423,603,l),
(465,603,l),
(423,525,l),
(423,309,l),
(596,635,l),
(596,690,l),
(423,690,l)
);
},
{
closed = 1;
nodes = (
(382,603,l),
(465,603,l),
(382,449,l),
(382,233,l),
(483,422,l),
(483,690,l),
(382,690,l)
);
}
);
width = 686;
},
{
hints = (
{
horizontal = 1;
place = (0,21);
target = up;
type = BottomGhost;
},
{
horizontal = 1;
place = (603,87);
type = Stem;
},
{
place = (52,506);
type = Stem;
}
);
layerId = m002;
shapes = (
{
closed = 1;
nodes = (
(439,555,l),
(140,0,l),
(258,0,l),
(439,340,l)
);
},
{
closed = 1;
nodes = (
(439,690,l),
(90,690,l),
(90,603,l),
(439,603,l)
);
},
{
closed = 1;
nodes = (
(540,603,l),
(582,603,l),
(540,525,l),
(540,309,l),
(713,635,l),
(713,690,l),
(540,690,l)
);
},
{
closed = 1;
nodes = (
(439,603,l),
(522,603,l),
(439,449,l),
(439,233,l),
(540,422,l),
(540,690,l),
(439,690,l)
);
}
);
width = 803;
}
);
note = seven;
unicode = 55;
},
{
glyphname = eight;
lastChange = "2024-05-10 23:41:36 +0000";
layers = (
{
hints = (
{
horizontal = 1;
place = (-15,84);
type = Stem;
},
{
horizontal = 1;
place = (317,84);
type = Stem;
},
{
horizontal = 1;
place = (620,84);
type = Stem;
},
{
place = (46,118);
type = Stem;
},
{
place = (436,119);
type = Stem;
},
{
place = (77,115);
type = Stem;
},
{
place = (422,115);
type = Stem;
}
);
layerId = m01;
shapes = (
{
closed = 1;
nodes = (
(484,676,l),
(448,694,o),
(403,704,o),
(351,704,cs),
(323,704,o),
(298,701,o),
(275,696,c),
(275,597,l),
(293,611,o),
(319,620,o),
(351,620,cs),
(427,620,o),
(466,573,o),
(466,512,cs),
(466,447,o),
(425,401,o),
(350,401,cs),
(318,401,o),
(293,409,o),
(275,424,c),
(275,303,l),
(294,312,o),
(317,317,o),
(345,317,cs),
(440,317,o),
(480,260,o),
(480,193,cs),
(480,120,o),
(438,69,o),
(346,69,cs),
(318,69,o),
(294,74,o),
(275,83,c),
(275,-10,l),
(297,-13,o),
(320,-15,o),
(344,-15,cs),
(394,-15,o),
(443,-7,o),
(484,12,c),
(484,359,l),
(478,361,o),
(473,363,o),
(467,365,c),
(473,367,o),
(479,369,o),
(484,372,c)
);
},
{
closed = 1;
nodes = (
(320,703,l),
(196,693,o),
(121,621,o),
(121,516,cs),
(121,439,o),
(165,388,o),
(226,365,c),
(153,342,o),
(90,280,o),
(90,194,cs),
(90,52,o),
(190,-8,o),
(320,-14,c),
(320,71,l),
(246,80,o),
(208,127,o),
(208,193,cs),
(208,254,o),
(244,306,o),
(320,315,c),
(320,404,l),
(264,415,o),
(236,456,o),
(236,512,cs),
(236,564,o),
(265,606,o),
(320,617,c)
);
},
{
closed = 1;
nodes = (
(440,586,l),
(458,567,o),
(467,541,o),
(467,512,cs),
(467,481,o),
(458,455,o),
(440,436,c),
(440,288,l),
(468,265,o),
(481,231,o),
(481,193,cs),
(481,152,o),
(468,118,o),
(440,96,c),
(440,-3,l),
(530,20,o),
(600,81,o),
(600,194,cs),
(600,280,o),
(540,342,o),
(468,365,c),
(531,387,o),
(582,438,o),
(582,516,cs),
(582,604,o),
(530,668,o),
(440,693,c)
);
}
);
width = 690;
},
{
layerId = m002;
shapes = (
{
closed = 1;
nodes = (
(528,676,l),
(492,694,o),
(447,704,o),
(395,704,cs),
(367,704,o),
(342,701,o),
(319,696,c),
(319,597,l),
(337,611,o),
(363,620,o),
(395,620,cs),
(471,620,o),
(510,573,o),
(510,512,cs),
(510,447,o),
(469,401,o),
(394,401,cs),
(362,401,o),
(337,409,o),
(319,424,c),
(319,303,l),
(338,312,o),
(361,317,o),
(389,317,cs),
(484,317,o),
(524,260,o),
(524,193,cs),
(524,120,o),
(482,69,o),
(390,69,cs),
(362,69,o),
(338,74,o),
(319,83,c),
(319,-10,l),
(341,-13,o),
(364,-15,o),
(388,-15,cs),
(438,-15,o),
(487,-7,o),
(528,12,c),
(528,359,l),
(522,361,o),
(517,363,o),
(511,365,c),
(517,367,o),
(523,369,o),
(528,372,c)
);
},
{
closed = 1;
nodes = (
(320,703,l),
(196,693,o),
(121,621,o),
(121,516,cs),
(121,439,o),
(165,388,o),
(226,365,c),
(153,342,o),
(90,280,o),
(90,194,cs),
(90,52,o),
(190,-8,o),
(320,-14,c),
(320,71,l),
(246,80,o),
(208,127,o),
(208,193,cs),
(208,254,o),
(244,306,o),
(320,315,c),
(320,404,l),
(264,415,o),
(236,456,o),
(236,512,cs),
(236,564,o),
(265,606,o),
(320,617,c)
);
},
{
closed = 1;
nodes = (
(528,586,l),
(546,567,o),
(555,541,o),
(555,512,cs),
(555,481,o),
(546,455,o),
(528,436,c),
(528,288,l),
(556,265,o),
(569,231,o),
(569,193,cs),
(569,152,o),
(556,118,o),
(528,96,c),
(528,-3,l),
(618,20,o),
(688,81,o),
(688,194,cs),
(688,280,o),
(628,342,o),
(556,365,c),
(619,387,o),
(670,438,o),
(670,516,cs),
(670,604,o),
(618,668,o),
(528,693,c)
);
}
);
width = 778;
}
);
note = eight;
unicode = 56;
},
{
glyphname = nine;
lastChange = "2024-05-10 23:41:23 +0000";
layers = (
{
hints = (
{
horizontal = 1;
place = (-14,84);
type = Stem;
},
{
horizontal = 1;
place = (225,84);
type = Stem;
},
{
horizontal = 1;
place = (620,84);
type = Stem;
},
{
place = (49,119);
type = Stem;
},
{
place = (439,116);
type = Stem;
}
);
layerId = m01;
shapes = (
{
closed = 1;
nodes = (
(305,72,l),
(255,80,o),
(226,115,o),
(213,176,cs),
(211,186,l),
(97,186,l),
(98,176,ls),
(109,65,o),
(186,-8,o),
(305,-14,c)
);
},
{
closed = 1;
nodes = (
(305,702,l),
(182,686,o),
(90,594,o),
(90,455,cs),
(90,327,o),
(166,231,o),
(305,225,c),
(305,314,l),
(239,331,o),
(209,393,o),
(209,468,cs),
(209,542,o),
(246,598,o),
(305,615,c)
);
},
{
closed = 1;
nodes = (
(480,321,l),
(471,141,o),
(414,70,o),
(329,70,cs),
(303,70,o),
(281,76,o),
(263,88,c),
(263,-9,l),
(281,-12,o),
(301,-14,o),
(321,-14,cs),
(380,-14,o),
(435,4,o),
(480,42,c)
);
},
{
closed = 1;
nodes = (
(480,670,l),
(442,693,o),
(396,704,o),
(342,704,cs),
(314,704,o),
(288,700,o),
(263,693,c),
(263,594,l),
(285,611,o),
(312,620,o),
(343,620,cs),
(422,620,o),
(474,554,o),
(474,466,cs),
(474,363,o),
(414,309,o),
(343,309,cs),
(310,309,o),
(284,318,o),
(263,333,c),
(263,230,l),
(280,227,o),
(299,225,o),
(318,225,cs),
(368,225,o),
(406,237,o),
(443,267,c),
(461,283,o),
(473,302,o),
(480,328,c)
);
},
{
closed = 1;
nodes = (
(437,578,l),
(460,550,o),
(474,511,o),
(474,466,cs),
(474,416,o),
(460,377,o),
(437,351,c),
(437,262,l),
(439,264,o),
(441,265,o),
(443,267,c),
(461,283,o),
(473,303,o),
(480,329,c),
(477,239,o),
(461,176,o),
(437,134,c),
(437,13,l),
(531,62,o),
(596,178,o),
(596,373,cs),
(596,555,o),
(540,655,o),
(437,690,c)
);
}
);
width = 686;
},
{
hints = (
{
horizontal = 1;
place = (-14,84);
type = Stem;
},
{
horizontal = 1;
place = (225,84);
type = Stem;
},
{
horizontal = 1;
place = (620,84);
type = Stem;
},
{
place = (49,119);
type = Stem;
},
{
place = (439,116);
type = Stem;
}
);
layerId = m002;
shapes = (
{
closed = 1;
nodes = (
(305,72,l),
(255,80,o),
(226,115,o),
(213,176,cs),
(211,186,l),
(97,186,l),
(98,176,ls),
(109,65,o),
(186,-8,o),
(305,-14,c)
);
},
{
closed = 1;
nodes = (
(305,702,l),
(182,686,o),
(90,594,o),
(90,455,cs),
(90,327,o),
(166,231,o),
(305,225,c),
(305,314,l),
(239,331,o),
(209,393,o),
(209,468,cs),
(209,542,o),
(246,598,o),
(305,615,c)
);
},
{
closed = 1;
nodes = (
(522,321,l),
(513,141,o),
(456,70,o),
(371,70,cs),
(345,70,o),
(323,76,o),
(305,88,c),
(305,-9,l),
(323,-12,o),
(343,-14,o),
(363,-14,cs),
(422,-14,o),
(477,4,o),
(522,42,c)
);
},
{
closed = 1;
nodes = (
(522,670,l),
(484,693,o),
(438,704,o),
(384,704,cs),
(356,704,o),
(330,700,o),
(305,693,c),
(305,594,l),
(327,611,o),
(354,620,o),
(385,620,cs),
(464,620,o),
(516,554,o),
(516,466,cs),
(516,363,o),
(456,309,o),
(385,309,cs),
(352,309,o),
(326,318,o),
(305,333,c),
(305,230,l),
(322,227,o),
(341,225,o),
(360,225,cs),
(410,225,o),
(448,237,o),
(485,267,c),
(503,283,o),
(515,302,o),
(522,328,c)
);
},
{
closed = 1;
nodes = (
(522,578,l),
(545,550,o),
(559,511,o),
(559,466,cs),
(559,416,o),
(545,377,o),
(522,351,c),
(522,262,l),
(524,264,o),
(526,265,o),
(528,267,c),
(546,283,o),
(558,303,o),
(565,329,c),
(562,239,o),
(546,176,o),
(522,134,c),
(522,13,l),
(616,62,o),
(681,178,o),
(681,373,cs),
(681,555,o),
(625,655,o),
(522,690,c)
);
}
);
width = 771;
}
);
note = nine;
unicode = 57;
},
